# Aspose.3D Wavefront OBJ Exporter
# Copyright 2004-2021 Aspose Pty Ltd.
# File created: 07/01/2021 12:15:48

mtllib material.lib

#
# object Book_07
#

v 14.44194030761718752 -7.79112620225527E-06 3.6999893188473192
v 14.44194030761718752 -7.629394057066867E-06 -1.0848045682612512E-05
v 0.141937255859375 -7.791126452373841E-06 3.6999950408932176
v 0.141937255859375 -7.629394312396242E-06 -5.006790494624237E-06
v 14.44194030761718752 20.999992208873632 3.69999357464658776
v 14.44194030761718752 20.99999237060577072 -6.473037124623958E-06
v 0.141937255859375 20.99999220887337968 3.69999929669248616
v 0.141937255859375 20.99999237060551488 -6.317819366356826E-07
v 14.44194030761718752 -7.786755057140324E-06 3.59998917579617176
v 0.24193572998046876 -7.786755317680503E-06 3.59999513626064928
v 0.24193572998046876 -7.633765447089579E-06 0.09999489784207364
v 14.44194030761718752 -7.633765196971007E-06 0.0999891757961752
v 14.44194030761718752 20.99999236623462912 0.09999355080473318
v 0.24193572998046876 20.99999236623438032 0.09999927285063162
v 0.24193572998046876 20.99999221324451424 3.59999939205991784
v 14.44194030761718752 20.99999221324476656 3.59999367001401936
v 0.241912841796875 0.32360061168274472 3.59998227580275024
v 14.13787078857421876 20.69596847056954656 3.599980782121448
v 0.241912841796875 0.3236007646726518 0.09998120291914776
v 14.13787078857421876 20.695968623559466 0.09997947081926622
v 0.241912841796875 20.7015151933834396 0.09998507389832338
v 0.241912841796875 20.70151504039348464 3.599987219665532
v 14.13787078857421876 0.30406936168298448 3.59997679132169288
v 14.13787078857421876 0.30406951467289676 0.09997559922880082
v -7.62939453125E-06 -1.078212077979824E-07 2.46666169166564672
v -7.62939453125E-06 -5.3910494472115965E-08 1.2333283424377428
v -7.62939453125E-06 20.9999999460893392 1.23333259823701112
v -7.62939453125E-06 20.99999989217862512 2.46666594746491528
v 0.0999908447265625 -1.0636415247859603E-07 2.43332815170287864
v 0.0999908447265625 -5.5367528948288005E-08 1.26666140556335316
v 0.0999908447265625 20.99999994463229312 1.2666658997812006
v 0.0999908447265625 20.99999989363567104 2.43333264592072632
v 0.09996795654296876 0.32360834307054916 1.26664818747758544
v 0.09996795654296876 0.32360829207390996 2.4333152912449796
v 0.09996795654296876 20.70152277178131328 1.26665253529391932
v 0.09996795654296876 20.70152272078465928 2.43331999668918232
# 36 vertices

vn -4.0847930904419627E-07 2.0833375224960093E-07 -0.999999999999992
vn -4.0847930904419627E-07 2.0833375224960093E-07 -0.999999999999992
vn -4.0847930904419627E-07 2.0833375224960093E-07 -0.999999999999992
vn -4.0847930904419627E-07 2.0833375224960093E-07 -0.999999999999992
vn -0.99835920333862304 -1.16630278351737E-08 0.05726191401481584
vn -0.99835920333862304 -1.1662983752380729E-08 0.05726169794797852
vn -0.99835926294326784 1.1734544690111814E-08 -0.05726168677210763
vn -0.99835920333862304 1.1734593304002505E-08 -0.05726192519068673
vn 4.001429658728739E-07 -2.0265711264677577E-07 0.99999999999999216
vn 4.001429658728739E-07 -2.0265711264677577E-07 0.99999999999999216
vn 4.001429658728739E-07 -2.0265711264677577E-07 0.99999999999999216
vn 4.001429658728739E-07 -2.0265711264677577E-07 0.99999999999999216
vn 0 -0.9999999999999992 -4.3711388508782534E-08
vn 0 -0.9999999403953544 -4.3711385844247275E-08
vn 0 -0.9999999999999992 -4.3711388508782534E-08
vn 0 -0.9999999999999992 -4.3711388508782534E-08
vn 0 -0.9999999999999992 -4.3711388508782534E-08
vn 0 -0.9999999403953544 -4.3711385844247275E-08
vn 0 -0.9999999403953544 -4.3711385844247275E-08
vn 0 -0.9999999999999992 -4.3711388508782534E-08
vn 0 -0.9999999999999992 -4.3711388508782534E-08
vn 0 -0.9999999403953544 -4.3711385844247275E-08
vn 0 -0.9999999999999992 -4.3711388508782534E-08
vn 0 -0.9999999999999992 -4.3711388508782534E-08
vn 1 0 0
vn 0.9999999403953552 0 0
vn 1 0 0
vn 0.9999999403953552 0 0
vn 0 0.9999999403953544 4.3711385844247275E-08
vn 0 0.9999999999999992 4.3711388508782534E-08
vn 0 0.9999999999999992 4.3711388508782534E-08
vn 0 0.9999999999999992 4.3711388508782534E-08
vn 0 0.9999999403953544 4.3711385844247275E-08
vn 0 0.9999999403953544 4.3711385844247275E-08
vn 0 0.9999999403953544 4.3711385844247275E-08
vn 0 0.9999999403953544 4.3711385844247275E-08
vn 0 0.9999999999999992 4.3711388508782534E-08
vn 0 0.9999999999999992 4.3711388508782534E-08
vn 0 0.9999999403953544 4.3711385844247275E-08
vn 0 0.9999999999999992 4.3711388508782534E-08
vn 1 0 0
vn 0.9999999403953552 0 0
vn 1 0 0
vn 0.9999999403953552 0 0
vn -4.354574230092112E-07 -4.043004339115974E-05 -1.00000000000176836
vn -4.354574230092112E-07 -4.043004339382428E-05 -0.99999994039712352
vn -4.3545745143092063E-07 -4.043004702913855E-05 -1.00000000000176836
vn -4.3545739458750177E-07 -4.043004339115974E-05 -1.00000000000176836
vn 1 7.072803418850521E-05 3.091620573913642E-12
vn 1 7.072803418850521E-05 3.091620573913642E-12
vn 1 7.072803418850521E-05 3.091620573913642E-12
vn 1 7.072803418850521E-05 3.091620573913642E-12
vn 4.3345821154616715E-07 4.365769093328531E-05 0.99999994039726464
vn 4.334582399678766E-07 4.365769456859958E-05 1.00000000000190958
vn 4.3345821154616715E-07 4.3657690930620774E-05 1.00000000000190958
vn 4.33458268389586E-07 4.365769820657839E-05 1.00000000000190958
vn -4.547737989923917E-05 -1.992322113952838E-07 0.99999999999999248
vn -4.547737626126036E-05 -1.9923219451989382E-07 0.99999994039534768
vn -4.547737626126036E-05 -1.992322113952838E-07 0.99999999999999248
vn -4.547737626126036E-05 -1.992322113952838E-07 0.99999999999999248
vn 3.937821873023495E-07 -4.7134673131887794E-05 0.9999999999979408
vn 3.937821873023495E-07 -4.7134673131887794E-05 0.9999999999979408
vn 3.937821873023495E-07 -4.7134673131887794E-05 0.9999999999979408
vn 3.937821873023495E-07 -4.7134673131887794E-05 0.9999999999979408
vn 1 -7.668320904485875E-05 -3.351929546641444E-12
vn 0.9999999403953552 -7.668320176890114E-05 -3.351929221380792E-12
vn 1 -7.668320176890114E-05 -3.351929221380792E-12
vn 1 -7.668320176890114E-05 -3.351929221380792E-12
vn -4.245342779540806E-07 4.1808050063929514E-05 -0.99999999999817376
vn -4.245342779540806E-07 4.1808050063929514E-05 -0.99999999999817376
vn -4.245342779540806E-07 4.1808050063929514E-05 -0.99999999999817376
vn -4.245342779540806E-07 4.1808050063929514E-05 -0.99999999999817376
vn 4.155691203777678E-05 2.049922234181878E-07 -0.99999994039534752
vn 4.155691567575559E-05 2.0499222608272305E-07 -0.99999999999999216
vn 4.155691203777678E-05 2.0499224029357777E-07 -0.99999999999999216
vn 4.155691203777678E-05 2.0499224029357777E-07 -0.99999999999999216
vn 0.0003968135570175946 0.9999998211860648 4.371138073722136E-08
vn 0.0003968135570175946 0.9999998807907096 4.3711383179712016E-08
vn 0.00039681358612142503 0.9999999403953544 4.3711385844247275E-08
vn 0.0003968135570175946 0.9999998807907096 4.3711383179712016E-08
vn 0.0003968135570175946 0.9999998807907096 4.3711383179712016E-08
vn 0.0003968136152252555 0.9999999403953544 4.3711385844247275E-08
vn 0.9999999403953552 0 0
vn 1 0 0
vn 0.9999999403953552 0 0
vn 1 0 0
vn -0.00139639002736657 -0.99999904632568288 -4.371134676439681E-08
vn -0.0013963901437819 -0.99999910593032752 -4.371134942893207E-08
vn -0.0013963901437819 -0.99999904632568288 -4.371134676439681E-08
vn -0.0013963901437819 -0.99999904632568288 -4.371134676439681E-08
vn -0.00139639002736657 -0.99999904632568288 -4.371134676439681E-08
vn -0.00139639002736657 -0.99999898672103808 -4.371134409986155E-08
vn -0.99344211816787712 -2.3287737016541854E-08 0.11433569341897874
vn -0.99344217777252192 -2.3287737335730974E-08 0.11433570086955936
vn -0.99835920333862304 -1.1662983752380729E-08 0.05726169794797852
vn -0.99835920333862304 -1.16630278351737E-08 0.05726191401481584
vn -0.99344211816787712 2.343062684151409E-08 -0.11433568596839814
vn -0.99344217777252192 2.343062925624917E-08 -0.11433570086955936
vn -0.99835920333862304 1.1734593304002505E-08 -0.05726192519068673
vn -0.99835926294326784 1.1734544690111814E-08 -0.05726168677210763
vn -3.928784735762747E-06 -1.00000000000025668 5.84939227343817E-06
vn -3.928784281015396E-06 -0.999999940395612 5.849392276102705E-06
vn -3.928784735762747E-06 -1.00000000000025668 5.84939227343817E-06
vn -3.928784735762747E-06 -0.999999940395612 5.849392276102705E-06
vn -3.92879655919387E-06 -0.9999999999997416 -5.936811867224279E-06
vn -3.92879655919387E-06 -0.9999999403950968 -5.936811864559743E-06
vn -3.92879655919387E-06 -0.9999999999997416 -5.9368123219716296E-06
vn -3.92879655919387E-06 -0.9999999999997416 -5.936811867224279E-06
vn 3.92879155697301E-06 0.9999999999997416 5.936813686213682E-06
vn 3.928791102225659E-06 0.9999999403950968 5.936813228801796E-06
vn 3.928791102225659E-06 0.9999999999997416 5.936813686213682E-06
vn 3.92879155697301E-06 0.9999999999997416 5.936814140961033E-06
vn 3.92879155697301E-06 1.00000000000025668 -5.849390909196117E-06
vn 3.928791102225659E-06 0.999999940395612 -5.849390911860652E-06
vn 3.92879155697301E-06 1.00000000000025668 -5.849390909196117E-06
vn 3.92879155697301E-06 1.00000000000025668 -5.849391363943468E-06
vn 0.9926797747612 7.522981772364878E-05 0.12077642232508494
vn 0.9926797151565552 7.522981044869037E-05 0.12077639997334316
vn 0.9926797151565552 7.522981044900956E-05 0.12077639252276258
vn 0.9926797151565552 7.522981044869037E-05 0.12077639997334316
vn 0.9926797747612 6.540622112509442E-05 -0.12077639251661518
vn 0.9926797151565552 6.540622840105204E-05 -0.12077639251661518
vn 0.9926797747612 6.540622112509442E-05 -0.12077639251661518
vn 0.9926797151565552 6.540622840105204E-05 -0.12077639251661518
vn 0.9926797151565552 -7.109345037353831E-05 -0.12077638507200114
vn 0.9926797747612 -7.109345764885755E-05 -0.12077639997316234
vn 0.9926797151565552 -7.109345037353831E-05 -0.12077638507200114
vn 0.9926797747612 -7.109345764885755E-05 -0.12077639997316234
vn 0.9926796555519104 -8.169181515267632E-05 0.12077636271358092
vn 0.9926797151565552 -8.169181515300938E-05 0.12077637016416152
vn 0.9926796555519104 -8.16918078767187E-05 0.12077636271358092
vn 0.9926796555519104 -8.169180787638564E-05 0.12077635526300034
# 132 vertex normals

vt 0.01918237842619419 0.99154955148696896 0
vt 0.01918241940438747 0.91860145330429072 0
vt 0.01969253458082676 0.91911160945892336 0
vt 0.01969249360263347 0.99154955148696896 0
vt 0.74794667959213264 0.91856259107589728 0
vt 0.7385311126708984 0.81144541501998896 0
vt 0.7385311126708984 0.91857224702835088 0
vt 0.74794661998748784 0.81143575906753536 0
vt 0.09883234649896622 0.94872206449508672 0
vt 0.1527080237865448 0.65753340721130368 0
vt 0.22549816966056824 0.65753340721130368 0
vt 0.22549808025360108 0.76442801952362064 0
vt 0.09883230179548264 0.87577396631240848 0
vt 0.0472041480243206 0.67250806093215944 0
vt 0.06603825092315674 0.67250806093215944 0
vt 0.06603821367025375 0.77940183877944944 0
vt 0.09934236854314804 0.87628412246704096 0
vt 0.66308510303497312 0.56567364931106568 0
vt 0.73587548732757568 0.56567364931106568 0
vt 0.73587548732757568 0.67256784439086912 0
vt 0.66308510303497312 0.67256784439086912 0
vt 0.1527080237865448 0.76442801952362064 0
vt 0.74845618009567264 0.81143575906753536 0
vt 0.12973032891750336 0.90065664052963264 0
vt 0.14758476614952088 0.90065664052963264 0
vt 0.738021433353424 0.91857224702835088 0
vt 0.95224457979202272 0.92023885250091552 0
vt 0.95251989364624016 0.99267631769180304 0
vt 0.738021433353424 0.81144541501998896 0
vt 0.12459971010684968 0.92556178569793696 0
vt 0.10674521327018738 0.92556178569793696 0
vt 0.74705773591995232 0.23680214583873748 0
vt 0.74845623970031744 0.91856259107589728 0
vt 0.14758475124835968 0.9023051857948304 0
vt 0.12973031401634216 0.9023051857948304 0
vt 0.95096325874328608 0.99113106727600096 0
vt 0.95059615373611456 0.92024499177932736 0
vt 0.10674519836902618 0.92404085397720336 0
vt 0.12459969520568848 0.92404085397720336 0
vt 0.74733287096023552 0.1643642634153366 0
vt 0.04720410704612732 0.77940183877944944 0
vt 0.81381118297576912 0.160904660820961 0
vt 0.81432020664215088 0.16141380369663238 0
vt 0.01430191472172737 0.99154961109161376 0
vt 0.01379179209470749 0.99154961109161376 0
vt 0.09934241324663162 0.94872206449508672 0
vt 0.80912977457046512 0.14625920355319976 0
vt 0.80862063169479376 0.1467682272195816 0
vt 0.06503935158252716 0.87650454044342048 0
vt 0.06554941087961197 0.87650454044342048 0
vt 0.98726874589920048 0.22535508871078492 0
vt 0.9857177734375 0.22690613567829132 0
vt 0.96005445718765264 0.99268126487731936 0
vt 0.95853352546691888 0.99267423152923584 0
vt 0.74898141622543328 0.16437041759490966 0
vt 0.74861431121826176 0.23525691032409668 0
vt 0.7406588196754456 0.23276446759700776 0
vt 0.74031925201416016 0.16032686829566956 0
vt 0.74187707901000976 0.16187071800231934 0
vt 0.7421797513961792 0.23275744915008544 0
vt 0.81381106376647952 0.17973662912845612 0
vt 0.81432020664215088 0.17922760546207428 0
vt 0.79029577970504768 0.14625920355319976 0
vt 0.79080480337142944 0.1467682272195816 0
vt 0.88014191389083856 0.22535508871078492 0
vt 0.98727250099182128 0.2590463161468506 0
vt 0.88169306516647344 0.22690613567829132 0
vt 0.01430195569992065 0.91860151290893552 0
vt 0.01379183400422334 0.91911160945892336 0
vt 0.06503938883543015 0.94945263862609856 0
vt 0.06554944813251495 0.94894254207611088 0
vt 0.96039414405822752 0.92024397850036624 0
vt 0.95883631706237792 0.9217878580093384 0
vt 0.98572134971618656 0.26059719920158388 0
vt 0.88014566898345952 0.25904619693756104 0
vt 0.88169664144515984 0.26059707999229432 0
vt 0.99181866645812992 0.88159251213073728 0
vt 0.99181866645812992 0.89680099487304688 0
vt 0.93143630027770992 0.89680099487304688 0
vt 0.93143630027770992 0.88159251213073728 0
vt 0.7653905153274536 0.89242035150527952 0
vt 0.7653905153274536 0.87721192836761472 0
vt 0.85399723052978512 0.87721192836761472 0
vt 0.85399723052978512 0.89242035150527952 0
vt 0.921826720237732 0.8798868060112 0
vt 0.921826720237732 0.89509552717208864 0
vt 0.86144483089447024 0.89509552717208864 0
vt 0.86144483089447024 0.8798868060112 0
vt 0.79657375812530512 0.14625920355319976 0
vt 0.80285179615020752 0.14625920355319976 0
vt 0.05976021662354469 0.67250806093215944 0
vt 0.05348218232393265 0.67250806093215944 0
vt 0.81381112337112432 0.17345930635929108 0
vt 0.81381112337112432 0.16718198359012604 0
vt 0.05348214134573936 0.77940183877944944 0
vt 0.05976017564535141 0.77940183877944944 0
vt 0.13568180799484252 0.90065664052963264 0
vt 0.1416332870721817 0.90065664052963264 0
vt 0.796743392944336 0.1467682272195816 0
vt 0.8026820421218872 0.1467682272195816 0
vt 0.1186482086777687 0.92556178569793696 0
vt 0.11269671469926834 0.92556178569793696 0
vt 0.81432020664215088 0.17328967154026032 0
vt 0.81432020664215088 0.16735173761844636 0
vt 0.1416332721710205 0.9023051857948304 0
vt 0.13568179309368134 0.9023051857948304 0
vt 0.921826720237732 0.89002597332000736 0
vt 0.921826720237732 0.88495635986328128 0
vt 0.93143630027770992 0.8917315006256104 0
vt 0.93143630027770992 0.88666200637817376 0
vt 0.11864819377660752 0.92404085397720336 0
vt 0.11269669979810714 0.92404085397720336 0
# 112 texture coords

g Book_07
usemtl Books_mtl
s 1
f 2/10/1 4/11/2 8/12/3 6/22/4
f 25/91/5 28/96/6 27/95/7 26/92/8
f 3/18/9 1/19/10 5/20/11 7/21/12
f 1/9/13 3/13/14 10/17/15 9/46/16
f 26/90/17 30/100/18 29/99/19 25/89/20
f 4/70/21 2/49/22 12/50/23 11/71/24
f 2/6/25 6/7/26 13/26/27 12/29/28
f 6/1/29 8/2/30 14/3/31 13/4/32
f 28/94/33 32/104/34 31/103/35 27/93/36
f 7/68/37 5/44/38 16/45/39 15/69/40
f 5/5/41 1/8/42 9/23/43 16/33/44
f 9/32/45 10/40/46 17/55/47 23/56/48
f 30/98/49 33/105/50 34/106/51 29/97/52
f 11/27/53 12/28/54 24/36/55 19/37/56
f 12/65/57 13/51/58 20/52/59 24/67/60
f 13/72/61 14/53/62 21/54/63 20/73/64
f 32/102/65 36/112/66 35/111/67 31/101/68
f 15/57/69 16/58/70 18/59/71 22/60/72
f 16/75/73 9/66/74 23/74/75 18/76/76
f 18/77/77 20/78/78 21/79/79 35/109/80 36/110/81 22/80/82
f 23/81/83 24/82/84 20/83/85 18/84/86
f 23/88/87 17/85/88 34/108/89 33/107/90 19/86/91 24/87/92
f 3/15/93 7/16/94 28/96/95 25/91/96
f 8/41/97 4/14/98 26/92/99 27/95/100
f 26/90/101 4/47/102 11/48/103 30/100/104
f 10/64/105 3/63/106 25/89/107 29/99/108
f 28/94/109 7/42/110 15/43/111 32/104/112
f 14/62/113 8/61/114 27/93/115 31/103/116
f 11/25/117 19/34/118 33/105/119 30/98/120
f 17/35/121 10/24/122 29/97/123 34/106/124
f 15/31/125 22/38/126 36/112/127 32/102/128
f 21/39/129 14/30/130 31/101/131 35/111/132
#32 polygons

