# Aspose.3D Wavefront OBJ Exporter
# Copyright 2004-2021 Aspose Pty Ltd.
# File created: 07/01/2021 11:43:42

mtllib material.lib

#
# object BookOpen_03
#

v 1.52587890625E-05 0.0018881559361497 2.3909554099193375E-05
v -0.40000915527343752 0.00188374519243528 2.393339540050592E-05
v 14.50001525878906248 0.00188493728536961 2.3045286609258513E-05
v -14.90000915527343744 0.00188910961026054 2.861236024986024E-05
v 1.52587890625E-05 0.00189358197266398 -20.49997711173365288
v -0.40000915527343752 0.00188440285736857 -20.49997711173405432
v 14.50001525878906248 0.00189036332184611 -20.49997711173379496
v -14.90000915527343744 0.00188976727514824 -20.49997138968792144
v 14.21296691894531248 0.92294883727958896 1.5677713245394328E-05
v -0.19996643066406248 0.90104586087314304 -20.4999847018249888
v 14.21296691894531248 0.92295474015323344 -20.4999847008673228
v -0.19999694824218752 0.90104150973407456 -20.49998470182518064
v -14.53178405761718752 1.00189024411238869 -20.49997325332514464
v -14.53178405761718752 1.00188934802887152 2.7902424321245724E-05
v -0.20002746582031248 0.90103769302295984 1.6530972911641197E-05
v -0.19999694824218752 0.90103971958088224 1.6530971181235454E-05
v -0.19976806640625 0.70103853940883456 1.8385170496428273E-05
v -0.19975280761718752 0.7010431309803292 -20.49998280321875296
v 14.50001525878906248 0.0018839836110532 2.3045286567572085E-05
v 1.52587890625E-05 0.00188529491320048 2.3909552155144687E-05
v 1.52587890625E-05 0.00189072094971476 -20.4999771117337772
v 14.50001525878906248 0.0018894096475297 -20.49997711173383408
v -0.39999389648437504 0.00188481807604124 2.393339544740315E-05
v -14.89999389648437504 0.00188934802883964 2.8612360260281845E-05
v -14.89999389648437504 0.00188785992651542 -20.49997138968800312
v -0.39999389648437504 0.00188344918305216 -20.49997711173409696
v 1.52587890625E-05 0.00189745426073466 2.3909556324625457E-05
v -0.39999389648437504 0.00188231468096067 2.3933395337976276E-05
v -0.4000244140625 0.00188774071764274 -20.49998092643117432
v 1.52587890625E-05 0.00190288029733231 -20.49997901908188072
v -0.19975280761718752 0.70105803214152304 -20.49998280321810288
v -0.19976806640625 0.70105260610500152 1.8385172930292496E-05
v -0.19976806640625 0.70105260610495976 1.9338847246698743E-05
v -0.19976806640625 0.70105803214152304 -20.49998280321810288
v -0.19976806640625 0.70103853940883456 1.8385170496428273E-05
v -0.19975280761718752 0.7010431309803292 -20.49998280321875296
v -10.066680908203125 0.364092588423524 2.6513155461951528E-05
v -5.23333740234375 0.38489925861248184 2.5276919325343207E-05
v -5.23333740234375 0.38489991627722304 -20.4999713729460176
v -10.066680908203125 0.36409336529777552 -20.49997518855276368
v -9.80287170410156256 1.5461133142572916 -20.49997895158229608
v -4.97236633300781248 1.60712927781167392 -20.49997894891520288
v -9.80288696289062496 1.5461114644993816 2.3950453343312288E-05
v -4.97238159179687504 1.6071264743795848 2.081771926428179E-05
v -5.23332214355468752 0.38490009307750872 2.527691936181883E-05
v -10.0666656494140625 0.36409306526064048 2.7466829799200992E-05
v -10.0666656494140625 0.36409181557701136 -20.4999751885528312
v -5.23332214355468752 0.384898604975038 -20.4999713729460744
v 4.83334350585937504 0.38611513376132304 2.3723548246348574E-05
v 9.66668701171875 0.32553941011326492 2.3419364704936065E-05
v 9.66668701171875 0.32554483614975716 -20.499977097586406
v 4.83334350585937504 0.3861205597978284 -20.49997709493855776
v 4.63336181640625 1.48868316613284704 -20.4999846761385456
v 9.46669006347656248 1.4079899211987652 -20.49998467966576144
v 9.46669006347656248 1.40798401832510376 1.6089479116469634E-05
v 4.63334655761718752 1.48867714404988272 1.6399007636448043E-05
v 9.66668701171875 0.3255377411832112 2.3419364631984817E-05
v 4.83334350585937504 0.38611286878482152 2.3723548147343304E-05
v 4.83334350585937504 0.38611829482132696 -20.49997709493865728
v 9.66668701171875 0.32554316721970344 -20.49997709758648056
# 60 vertices

vn -3.3550020361872157E-07 -7.283922805134679E-06 -1.00000000000031952
vn -4.1792145566432737E-07 -7.398979796624516E-06 -1.00000000000032462
vn 2.758778521183558E-07 -7.176253641771879E-06 -0.99999994039567008
vn 3.4866454257098667E-07 -7.218175887890865E-06 -1.00000000000031663
vn -0.938402771949768 0.345543324947357 1.3057844083785852E-08
vn -0.938402771949768 0.3455433547496794 1.3057845416053482E-08
vn -0.9384028911590576 0.3455433845520018 1.305784624872075E-08
vn -0.9384028315544128 0.3455433547496794 1.3057845194008877E-08
vn 1.6193382634810405E-07 6.7364556526339214E-06 1.00000000000029554
vn 1.6193381213724933E-07 6.7364556526339214E-06 1.00000000000029554
vn 1.6193381213724933E-07 6.7364556526339214E-06 1.00000000000029554
vn 1.6193381213724933E-07 6.7364556526339214E-06 1.00000000000029554
vn -6.215639700712927E-07 -5.669610182001961E-06 -1.00000000000024891
vn -2.6429748345435655E-07 -3.3853878658174352E-06 -0.99999994039550432
vn -5.4689333950364016E-08 -3.812295129135279E-06 -0.99999994039552304
vn -8.624074325780384E-07 -5.865090609402657E-06 -0.99999994039561264
vn 0.95471101999282832 0.29753434658050208 8.232206044622714E-08
vn 0.95471107959747312 0.29753434658050208 8.23220675516545E-08
vn 0.95471107959747312 0.29753434658050208 8.23220675516545E-08
vn 0.95471107959747312 0.29753434658050208 8.23220675516545E-08
vn 4.281571079900459E-07 2.827175942909932E-06 0.99999994039547984
vn 4.2815713641175535E-07 2.827176167619072E-06 1.00000000000012478
vn 4.281571648334648E-07 2.827176167619072E-06 1.00000000000012478
vn 4.2815713641175535E-07 2.8271763949927475E-06 1.00000000000012478
vn 0.06707821786403656 0.99774765968321936 2.1444878239851306E-07
vn 0.0670783594250679 0.99774765968321936 2.1444898135047907E-07
vn -0.06356249749660492 0.99797797203063792 6.419792775158584E-08
vn -0.06356258690357208 0.99797785282134848 6.419784781552806E-08
vn -0.05212268605828285 0.99864065647124352 2.2896273732531114E-07
vn -0.05212274938821793 0.99864065647124352 2.2896266627103756E-07
vn 0.0592317245900631 0.99824422597883968 2.917825966397558E-07
vn 0.0592317245900631 0.99824422597883968 2.917825966397558E-07
vn 0.03339205309748649 -0.99944233894347088 -2.6478724923784114E-07
vn 0.0333920493721962 -0.99944233894347088 -2.6478724923784114E-07
vn -0.03968717530369758 -0.99921220540999328 -2.6472635750174334E-07
vn -0.03968717157840729 -0.99921214580534848 -2.647263548372081E-07
vn 0.03954160958528518 -0.99921792745590608 6.681989461743143E-08
vn 0.03954160213470459 -0.99921792745590608 6.681989461743143E-08
vn -0.03737855702638626 -0.99930125474930224 6.83259637757061E-08
vn -0.03737854212522506 -0.99930119514465744 6.8325959334814E-08
vn -0.961514949798584 -0.27475255727767656 -7.248874078769063E-08
vn -0.961514949798584 -0.27475255727767656 -7.248873368226327E-08
vn -0.9615150094032288 -0.27475255727767656 -7.248874078769063E-08
vn -0.9615150094032288 -0.27475255727767656 -7.248874078769063E-08
vn 0.96134734153747552 -0.27533861994741492 -4.308073802694601E-07
vn 0.96134734153747552 -0.27533861994741492 -4.308074086911695E-07
vn 0.96134734153747552 -0.27533861994741492 -4.308073802694601E-07
vn 0.96134734153747552 -0.27533861994741492 -4.308074086911695E-07
vn -2.6429748345435655E-07 -3.3853878658174352E-06 -0.99999994039550432
vn -7.69892892549251E-07 -2.3556461383744676E-06 -1.00000000000010413
vn -7.698929493926698E-07 -2.355646365748143E-06 -1.00000000000010413
vn -5.4689333950364016E-08 -3.812295129135279E-06 -0.99999994039552304
vn -1.9330943814566126E-06 -6.7341123395348035E-06 -1.00000000000029554
vn -1.9330943814566126E-06 -6.7341123395348035E-06 -1.00000000000029554
vn -1.9330943814566126E-06 -6.7341123395348035E-06 -1.00000000000029554
vn -6.215639700712927E-07 -5.669610182001961E-06 -1.00000000000024891
vn -8.624074325780384E-07 -5.865090609402657E-06 -0.99999994039561264
vn 1.1683821412589168E-06 5.3478236805570845E-06 1.00000000000023492
vn 1.1683821412589168E-06 5.347824135304435E-06 1.00000000000023492
vn 1.1683821412589168E-06 5.347824137968971E-06 0.99999994039559008
vn 1.1683821412589168E-06 5.347824135304435E-06 1.00000000000023492
vn 1.1683821412589168E-06 5.347824135304435E-06 1.00000000000023492
vn 5.045012017035333E-07 1.3536928873403298E-06 1.00000000000006039
vn 5.045011448601144E-07 1.353692890004865E-06 0.99999994039541552
vn 5.045012017035333E-07 1.3536928873403298E-06 1.00000000000006039
vn 5.045012017035333E-07 1.3536928873403298E-06 1.00000000000006039
vn 0.1463603675365448 0.98923134803770672 3.234894456749515E-07
vn 0.1463603675365448 0.98923134803770672 3.234894456749515E-07
vn 0.0670783594250679 0.99774765968321936 2.1444898135047907E-07
vn 0.06707821786403656 0.99774765968321936 2.1444878239851306E-07
vn -0.11432966589927674 0.99344289302825936 2.41841466852577E-08
vn -0.11432965844869614 0.99344289302825936 2.41841466852577E-08
vn -0.06356258690357208 0.99797785282134848 6.419784781552806E-08
vn -0.06356249749660492 0.99797797203063792 6.419792775158584E-08
vn 0.07472925633192062 -0.9972038865089456 6.678863107012489E-08
vn 0.07472925633192062 -0.9972038269043008 6.678861952380544E-08
vn 0.03954160213470459 -0.99921792745590608 6.681989461743143E-08
vn 0.03954160958528518 -0.99921792745590608 6.681989461743143E-08
vn -0.07899696379899979 -0.99687486886978576 6.976501687461223E-08
vn -0.07899696379899979 -0.99687492847443056 6.976501421007697E-08
vn -0.03737854212522506 -0.99930119514465744 6.8325959334814E-08
vn -0.03737855702638626 -0.99930125474930224 6.83259637757061E-08
vn -6.56399208764924E-07 -7.731886237705154E-06 -0.99999994039569424
vn -6.56399208764924E-07 -7.73188623504062E-06 -1.00000000000033906
vn -4.1792145566432737E-07 -7.398979796624516E-06 -1.00000000000032462
vn -3.3550020361872157E-07 -7.283922805134679E-06 -1.00000000000031952
vn 7.291919246199541E-07 -7.437341831062483E-06 -0.99999994039568144
vn 7.291919814633729E-07 -7.437342737892649E-06 -1.00000000000032618
vn 7.291919246199541E-07 -7.4373422831452984E-06 -1.00000000000032618
vn 3.4866454257098667E-07 -7.218175887890865E-06 -1.00000000000031663
vn 2.758778521183558E-07 -7.176253641771879E-06 -0.99999994039567008
vn -6.695845513604581E-07 7.215357818557422E-06 1.00000000000031663
vn -6.695845513604581E-07 7.215358273304773E-06 1.00000000000031663
vn -6.695844945170393E-07 7.215357818557422E-06 1.00000000000031663
vn -6.695844945170393E-07 7.215357818557422E-06 1.00000000000031663
vn -6.695845513604581E-07 7.215358273304773E-06 1.00000000000031663
vn 7.160041946008278E-07 7.5099185961047255E-06 1.00000000000032951
vn 7.160041946008278E-07 7.5099185961047255E-06 1.00000000000032951
vn 7.160041946008278E-07 7.5099185961047255E-06 1.00000000000032951
vn 7.160041946008278E-07 7.5099185961047255E-06 1.00000000000032951
vn -0.12069133669137954 0.99269008636474016 1.5983866807900426E-07
vn -0.12069133669137954 0.99269008636474016 1.598386609735769E-07
vn -0.05212274938821793 0.99864065647124352 2.2896266627103756E-07
vn -0.05212268605828285 0.99864065647124352 2.2896273732531114E-07
vn 0.10166329890489578 0.99481880664824304 2.8603433011031854E-07
vn 0.10166329890489578 0.99481880664824304 2.8603433011031854E-07
vn 0.0592317245900631 0.99824422597883968 2.917825966397558E-07
vn 0.0592317245900631 0.99824422597883968 2.917825966397558E-07
vn 0.07924544811248779 -0.9968551993369952 -2.6425232668714216E-07
vn 0.07924544811248779 -0.9968551397323504 -2.642523098117522E-07
vn 0.0333920493721962 -0.99944233894347088 -2.6478724923784114E-07
vn 0.03339205309748649 -0.99944233894347088 -2.6478724923784114E-07
vn -0.06681329011917114 -0.99776554107664976 -2.6449364309844015E-07
vn -0.06681329011917114 -0.99776554107664976 -2.6449364309844015E-07
vn -0.03968717157840729 -0.99921214580534848 -2.647263548372081E-07
vn -0.03968717530369758 -0.99921220540999328 -2.6472635750174334E-07
# 116 vertex normals

vt 0.92858386039733888 0.91330730915069584 0
vt 0.92858386039733888 0.9046167731285096 0
vt 0.99158930778503424 0.9046167731285096 0
vt 0.99158930778503424 0.91330730915069584 0
vt 0.84477603435516352 0.93076372146606448 0
vt 0.84477603435516352 0.92207324504852288 0
vt 0.9338535070419312 0.92207324504852288 0
vt 0.9338535070419312 0.93076372146606448 0
vt 0.90264117717742912 0.78040969371795648 0
vt 0.90264117717742912 0.77171921730041504 0
vt 0.96564674377441408 0.77171921730041504 0
vt 0.96564674377441408 0.78040969371795648 0
vt 0.84477603435516352 0.92641848325729376 0
vt 0.90264117717742912 0.77606445550918576 0
vt 0.96564674377441408 0.77606445550918576 0
vt 0.92858386039733888 0.90896201133728032 0
vt 0.99158930778503424 0.90896201133728032 0
vt 0.9338535070419312 0.92641848325729376 0
vt 0.84477603435516352 0.92641848325729376 0
vt 0.90264117717742912 0.77606445550918576 0
vt 0.96564674377441408 0.77606445550918576 0
vt 0.92858386039733888 0.90896201133728032 0
vt 0.9338535070419312 0.92641848325729376 0
vt 0.99158930778503424 0.90896201133728032 0
vt 0.82442939281463616 0.59015607833862304 0
vt 0.74316728115081792 0.59015607833862304 0
vt 0.74316728115081792 0.47378990054130552 0
vt 0.82442939281463616 0.47378990054130552 0
vt 0.82768833637237552 0.59025382995605472 0
vt 0.82768833637237552 0.4738875925540924 0
vt 0.90895056724548336 0.4738875925540924 0
vt 0.90895056724548336 0.59025382995605472 0
vt 0.9758379459381104 0.90896201133728032 0
vt 0.96008658409118656 0.90896201133728032 0
vt 0.94433522224426272 0.90896201133728032 0
vt 0.76348280906677248 0.59015607833862304 0
vt 0.78379833698272704 0.59015607833862304 0
vt 0.8041138648986816 0.59015607833862304 0
vt 0.76348280906677248 0.47378990054130552 0
vt 0.78379833698272704 0.47378990054130552 0
vt 0.8041138648986816 0.47378990054130552 0
vt 0.91839253902435296 0.77606445550918576 0
vt 0.9341439604759216 0.77606445550918576 0
vt 0.94989538192749024 0.77606445550918576 0
vt 0.9429175853729248 0.90896201133728032 0
vt 0.95866894721984864 0.90896201133728032 0
vt 0.97442030906677248 0.90896201133728032 0
vt 0.84617549180984496 0.59025382995605472 0
vt 0.86649107933044432 0.59025382995605472 0
vt 0.88680660724639888 0.59025382995605472 0
vt 0.91981017589569088 0.77606445550918576 0
vt 0.93556159734725952 0.77606445550918576 0
vt 0.95131295919418336 0.77606445550918576 0
vt 0.88680660724639888 0.4738875925540924 0
vt 0.86649107933044432 0.4738875925540924 0
vt 0.84617549180984496 0.4738875925540924 0
vt 0.96564674377441408 0.77519541978836064 0
vt 0.92858386039733888 0.90809297561645504 0
vt 0.96564674377441408 0.77693349123001104 0
vt 0.92858386039733888 0.90983104705810544 0
vt 0.66332638263702392 0.6789463758468628 0
vt 0.73713445663452144 0.6789463758468628 0
vt 0.73713445663452144 0.78329598903656 0
vt 0.66332638263702392 0.78329586982727056 0
vt 0.65979421138763424 0.1197962686419487 0
vt 0.73360240459442144 0.1197962686419487 0
vt 0.73360240459442144 0.22414557635784148 0
vt 0.65979421138763424 0.22414557635784148 0
vt 0.28629195690155028 0.41564533114433288 0
vt 0.29647251963615416 0.41564533114433288 0
vt 0.29647251963615416 0.51999431848526 0
vt 0.28629195690155028 0.5199942588806152 0
vt 0.29240030050277708 0.5199942588806152 0
vt 0.29240030050277708 0.41564533114433288 0
vt 0.29036420583724976 0.41564533114433288 0
vt 0.29036420583724976 0.5199942588806152 0
vt 0.92364305257797248 0.77171921730041504 0
vt 0.94464486837387088 0.77171921730041504 0
vt 0.94958567619323728 0.9046167731285096 0
vt 0.97058749198913568 0.9046167731285096 0
vt 0.97058749198913568 0.90896201133728032 0
vt 0.94958567619323728 0.90896201133728032 0
vt 0.77025467157363888 0.59015607833862304 0
vt 0.7973420023918152 0.59015607833862304 0
vt 0.77025467157363888 0.47378990054130552 0
vt 0.7973420023918152 0.47378990054130552 0
vt 0.92364305257797248 0.77606445550918576 0
vt 0.94464486837387088 0.77606445550918576 0
vt 0.6843969225883484 0.1197962686419487 0
vt 0.70899969339370728 0.1197962686419487 0
vt 0.70899969339370728 0.22414557635784148 0
vt 0.6843969225883484 0.22414557635784148 0
vt 0.94464486837387088 0.78040969371795648 0
vt 0.92364305257797248 0.78040969371795648 0
vt 0.97058749198913568 0.91330730915069584 0
vt 0.94958567619323728 0.91330730915069584 0
vt 0.94958567619323728 0.90896201133728032 0
vt 0.97058749198913568 0.90896201133728032 0
vt 0.85477572679519648 0.59025382995605472 0
vt 0.8818631768226624 0.59025382995605472 0
vt 0.92364305257797248 0.77606445550918576 0
vt 0.94464486837387088 0.77606445550918576 0
vt 0.8818631768226624 0.4738875925540924 0
vt 0.85477572679519648 0.4738875925540924 0
vt 0.687929093837738 0.6789463758468628 0
vt 0.71253174543380736 0.6789463758468628 0
vt 0.71253174543380736 0.78329592943191536 0
vt 0.687929093837738 0.78329592943191536 0
# 108 texture coords

g BookOpen_03
usemtl BooksA_mtl
s 1
f 54/98/1 51/95/2 52/96/3 53/97/4
f 14/19/5 13/23/6 8/8/7 4/5/8
f 55/101/9 56/102/10 49/93/11 50/94/12
f 39/79/13 40/80/14 41/81/15 42/82/16
f 3/6/17 7/7/18 11/18/19 9/13/20
f 38/78/21 44/88/22 43/87/23 37/77/24
f 44/86/25 42/84/26 41/83/27 43/85/28
f 53/99/29 56/104/30 55/103/31 54/100/32
f 58/106/33 59/107/34 60/108/35 57/105/36
f 46/90/37 47/91/38 48/92/39 45/89/40
f 33/75/41 34/76/42 30/72/43 27/69/44
f 28/70/45 29/71/46 31/73/47 32/74/48
f 40/80/49 8/3/50 13/24/51 41/81/52
f 12/22/53 18/58/54 6/2/55 39/79/56 42/82/57
f 2/11/58 17/57/59 15/21/60 44/88/61 38/78/62
f 14/20/63 4/10/64 37/77/65 43/87/66
f 15/28/67 12/25/68 42/84/69 44/86/70
f 13/26/71 14/27/72 43/85/73 41/83/74
f 24/66/75 25/67/76 47/91/77 46/90/78
f 26/68/79 23/65/80 45/89/81 48/92/82
f 11/17/83 7/4/84 51/95/85 54/98/86
f 5/1/87 36/60/88 10/16/89 53/97/90 52/96/91
f 16/15/92 35/59/93 1/12/94 49/93/95 56/102/96
f 50/94/97 3/9/98 9/14/99 55/101/100
f 10/29/101 16/30/102 56/104/103 53/99/104
f 9/31/105 11/32/106 54/100/107 55/103/108
f 20/62/109 21/63/110 59/107/111 58/106/112
f 22/64/113 19/61/114 57/105/115 60/108/116
#28 polygons

