# Aspose.3D Wavefront OBJ Exporter
# Copyright 2004-2021 Aspose Pty Ltd.
# File created: 07/01/2021 12:27:29

mtllib material.lib

#
# object Book_13
#

v 0.1215057373046875 3.9862647407234544E-13 -9.119510650634757E-06
v 0.1215057373046875 -8.742238121853738E-08 1.99999094009399216
v 17.1215057373046875 2.7877799167150954E-13 -6.37769699096679E-06
v 17.1215057373046875 -8.742250627782336E-08 1.99999380111694144
v 0.1215057373046875 24.50000000000019536 -3.9954657847229796E-06
v 0.1215057373046875 24.49999991257741528 1.99999606413885808
v 17.1215057373046875 24.50000000000007464 -1.1940474802796234E-06
v 17.1215057373046875 24.49999991257729096 1.99999892516180736
v 0.22150421142578124 -4.370743883068918E-09 0.09999096393585196
v 17.1215057373046875 -4.370863731551319E-09 0.09999370574951162
v 17.1215057373046875 24.49999999562893296 0.09999882979437754
v 0.22150421142578124 24.49999999562905376 0.09999608798071786
v 0.22150421142578124 24.49999991694854984 1.89999615950628976
v 17.1215057373046875 24.49999991694843616 1.89999878211065984
v 17.1215057373046875 -8.305136116287858E-08 1.89999365806579392
v 0.22150421142578124 -8.305124652519976E-08 1.89999103546142384
v 0.221527099609375 24.19339751760299252 0.09996674909346832
v 0.221527099609375 24.19339743892245664 1.89996753587477744
v 16.81746292114257808 24.19595328609031172 1.8999701585908672
v 16.81746292114257808 24.195953364770844 0.09996943141420282
v 16.81746292114257808 0.30405417720383708 1.8999641074526192
v 16.81746292114257808 0.3040542558843632 0.09996349948524442
v 0.221527099609375 0.31049338618832144 1.89996160433900544
v 0.221527099609375 0.3104934648688606 0.09996069834840674
v -7.62939453125E-06 -5.8281457208935355E-08 1.333324313163756
v -7.62939453125E-06 -2.9140533199333328E-08 0.66665768623351984
v -7.62939453125E-06 24.49999997085927104 0.66666263146445136
v -7.62939453125E-06 24.49999994171834672 1.3333293179993324
v 0.0999908447265625 24.49999996940222144 0.69999611182257512
v 0.0999908447265625 24.49999994317538568 1.29999613566443252
v 0.0999908447265625 -5.6824407100352566E-08 1.299990892410277
v 0.0999908447265625 -3.059757288630895E-08 0.69999086856841976
v 0.10001373291015624 24.19339746514930668 1.29996715440505152
v 0.10001373291015624 24.19339749137615316 0.6999668921446152
v 0.10001373291015624 0.31049341241516608 1.29996134207856916
v 0.10001373291015624 0.31049343864201336 0.69996102021348792
# 36 vertices

vn -0.99593967199325568 -1.8635673573741407E-08 0.09002338349819113
vn -0.99593967199325568 -1.8635677237477388E-08 0.0900234058499329
vn -0.99593967199325568 1.852302501659242E-08 -0.09002338349819113
vn -0.99593967199325568 1.852302956850682E-08 -0.0900234058499329
vn -1.682954859916208E-07 -2.0914469467392394E-07 0.999999999999992
vn -1.682954859916208E-07 -2.0914469467392394E-07 0.999999999999992
vn -1.682954859916208E-07 -2.0914469467392394E-07 0.999999999999992
vn -1.682954859916208E-07 -2.0914469467392394E-07 0.999999999999992
vn 1.6303623340263584E-07 2.103611154158358E-07 -0.999999999999992
vn 1.6303623340263584E-07 2.103611154158358E-07 -0.999999999999992
vn 1.6303623340263584E-07 2.103611154158358E-07 -0.999999999999992
vn 1.6303623340263584E-07 2.103611154158358E-07 -0.999999999999992
vn 0 -0.9999999999999992 -4.3711388508782534E-08
vn 0 -0.9999999403953544 -4.3711385844247275E-08
vn 0 -0.9999999999999992 -4.3711388508782534E-08
vn 0 -0.9999999999999992 -4.3711388508782534E-08
vn 1 0 0
vn 0.9999999403953552 0 0
vn 1 0 0
vn 0.9999999403953552 0 0
vn 0 0.9999999999999992 4.3711388508782534E-08
vn 0 0.9999999999999992 4.3711388508782534E-08
vn 0 0.9999999999999992 4.3711388508782534E-08
vn 0 0.9999999999999992 4.3711388508782534E-08
vn 0 0.9999999999999992 4.3711388508782534E-08
vn 0 0.9999999999999992 4.3711388508782534E-08
vn 0 0.9999999999999992 4.3711388508782534E-08
vn 0 0.9999999999999992 4.3711388508782534E-08
vn 0 0.9999999403953544 4.3711385844247275E-08
vn 0 0.9999999999999992 4.3711388508782534E-08
vn 0 0.9999999403953544 4.3711385844247275E-08
vn 0 0.9999999999999992 4.3711388508782534E-08
vn 1 0 0
vn 0.9999999403953552 0 0
vn 1 0 0
vn 0.9999999403953552 0 0
vn 0 -0.9999999999999992 -4.3711388508782534E-08
vn 0 -0.9999999403953544 -4.3711385844247275E-08
vn 0 -0.9999999999999992 -4.3711388508782534E-08
vn 0 -0.9999999403953544 -4.3711385844247275E-08
vn 0 -0.9999999999999992 -4.3711388508782534E-08
vn 0 -0.9999999999999992 -4.3711388508782534E-08
vn 0 -0.9999999999999992 -4.3711388508782534E-08
vn 0 -0.9999999403953544 -4.3711385844247275E-08
vn -1.4657885571978113E-07 9.832807229037677E-05 1.00000000000429922
vn -1.4657885571978113E-07 9.832807956633438E-05 1.00000000000429922
vn -1.4657885571978113E-07 9.832807956633438E-05 1.00000000000429922
vn -1.4657885571978113E-07 9.832807229037677E-05 1.00000000000429922
vn -9.802014392334968E-05 -2.2846744696103372E-07 0.9999999403953464
vn -9.802015119930729E-05 -2.2846743541471426E-07 0.99999999999999104
vn -9.802015119930729E-05 -2.2846744962556897E-07 0.99999999999999104
vn -9.802015119930729E-05 -2.2846744962556897E-07 0.99999999999999104
vn -1.5460051372429007E-07 -9.611126477460097E-05 0.9999999999958
vn -1.5460051372429007E-07 -9.611127204789405E-05 0.9999999403911552
vn -1.5460052793514478E-07 -9.611127205055858E-05 0.9999999999958
vn -1.5460051372429007E-07 -9.611127205055858E-05 0.9999999999958
vn 1 7.465101225534447E-05 3.2630993989767737E-12
vn 1 7.465101225534447E-05 3.2630993989767737E-12
vn 1 7.465101225534447E-05 3.2630993989767737E-12
vn 1 7.465101225534447E-05 3.2630993989767737E-12
vn 1.4944812676276342E-07 9.367362979628702E-05 -0.99999994039126176
vn 1.4944812676276342E-07 9.367362979895155E-05 -0.99999999999590656
vn 1.4944812676276342E-07 9.367362979895155E-05 -0.99999999999590656
vn 1.4944812676276342E-07 9.367363707490917E-05 -0.99999999999590656
vn 9.566766675561666E-05 2.309308586578851E-07 -0.99999999999999104
vn 9.566767403157428E-05 2.3093085599334984E-07 -0.9999999403953464
vn 9.566766675561666E-05 2.309308586578851E-07 -0.99999999999999104
vn 9.566767403157428E-05 2.309308728687398E-07 -0.99999999999999104
vn 1.3458760861340124E-07 -9.590926021707524E-05 -1.00000000000419353
vn 1.3458760861340124E-07 -9.590925294111763E-05 -1.00000000000419353
vn 1.3458760861340124E-07 -9.590925294111763E-05 -1.00000000000419353
vn 1.3458759440254653E-07 -9.590925294378216E-05 -0.99999994039954864
vn 1 -7.371551328105845E-05 -3.2222074401039302E-12
vn 1 -7.371551328105845E-05 -3.2222074401039302E-12
vn 0.9999999403953552 -7.371550600510085E-05 -3.2222071148432785E-12
vn 1 -7.371551328105845E-05 -3.2222074401039302E-12
vn -0.00015325633285101503 0.9999999999999992 4.3711388508782534E-08
vn -0.00015325633285101503 0.9999999999999992 4.3711388508782534E-08
vn -0.00015325633285101503 0.9999999999999992 4.3711388508782534E-08
vn -0.00015325633285101503 0.9999999999999992 4.3711388508782534E-08
vn -0.00015325633285101503 0.9999999999999992 4.3711388508782534E-08
vn -0.00015325633285101503 0.9999999403953544 4.3711385844247275E-08
vn 0.9999999403953552 0 0
vn 1 0 0
vn 0.9999999403953552 0 0
vn 1 0 0
vn -0.0003861144359689206 -0.9999998807907096 -4.3711383179712016E-08
vn -0.0003861144941765815 -0.9999999403953544 -4.3711385844247275E-08
vn -0.0003861144359689206 -0.9999999403953544 -4.3711385844247275E-08
vn -0.0003861144359689206 -0.9999999403953544 -4.3711385844247275E-08
vn -0.00038611446507275105 -0.9999999403953544 -4.3711385844247275E-08
vn -0.0003861144359689206 -0.9999999403953544 -4.3711385844247275E-08
vn -0.9837916493415832 -3.7120018503422614E-08 0.17931574583053444
vn -0.9837915897369384 -3.712001606093196E-08 0.17931573092937328
vn -0.99593967199325568 -1.8635677237477388E-08 0.0900234058499329
vn -0.99593967199325568 -1.8635673573741407E-08 0.09002338349819113
vn -0.9837916493415832 3.689563621289693E-08 -0.17931574583053444
vn -0.9837915897369384 3.689563377040628E-08 -0.17931573092937328
vn -0.99593967199325568 1.852302956850682E-08 -0.0900234058499329
vn -0.99593967199325568 1.852302501659242E-08 -0.09002338349819113
vn 0 0.9999999403953544 4.3711385844247275E-08
vn 0 0.9999999999999992 4.3711388508782534E-08
vn 0 0.9999999999999992 4.3711388508782534E-08
vn 0 0.9999999999999992 4.3711388508782534E-08
vn 0 0.9999999999999992 4.3711388508782534E-08
vn 0 0.9999999999999992 4.3711388508782534E-08
vn 0 0.9999999999999992 4.3711388508782534E-08
vn 0 0.9999999999999992 4.3711388508782534E-08
vn 0 -0.9999999999999992 -4.3711388508782534E-08
vn 0 -0.9999999999999992 -4.3711388508782534E-08
vn 0 -0.9999999999999992 -4.3711388508782534E-08
vn 0 -0.9999999999999992 -4.3711388508782534E-08
vn 0 -0.9999999999999992 -4.3711388508782534E-08
vn 0 -0.9999999999999992 -4.3711388508782534E-08
vn 0 -0.9999999999999992 -4.3711388508782534E-08
vn 0 -0.9999999403953544 -4.3711385844247275E-08
vn 0.9801023602485656 9.181301337260472E-05 -0.19849251210288236
vn 0.9801024198532104 9.181302064922847E-05 -0.19849252700404356
vn 0.98010230064392096 9.181300609598098E-05 -0.1984924972017212
vn 0.9801024198532104 9.181302064856234E-05 -0.19849251210288236
vn 0.9801024198532104 5.4214542809433164E-05 0.19849255681274904
vn 0.9801024198532104 5.421454644741197E-05 0.19849255681274904
vn 0.9801023602485656 5.4214542810043787E-05 0.19849254191158784
vn 0.9801023602485656 5.4214542810043787E-05 0.19849254191158784
vn 0.9801023602485656 -5.3023224414389114E-05 0.19849254190690032
vn 0.9801024198532104 -5.302322805236792E-05 0.19849254190690032
vn 0.9801023602485656 -5.3023224414389114E-05 0.19849254190690032
vn 0.9801024198532104 -5.302322441372298E-05 0.19849252700573912
vn 0.9801024198532104 -9.1095975418648E-05 -0.19849249720971644
vn 0.9801023602485656 -9.109596814269039E-05 -0.19849249720971644
vn 0.9801024198532104 -9.109597541798187E-05 -0.1984925121108776
vn 0.9801023602485656 -9.109596814269039E-05 -0.19849249720971644
# 132 vertex normals

vt 0.47280001640319824 0.94642746448516848 0
vt 0.5595217943191528 0.94642746448516848 0
vt 0.55901169776916504 0.94693708419799808 0
vt 0.47280001640319824 0.94693708419799808 0
vt 0.90026032924652096 0.31963011622428896 0
vt 0.50872886180877688 0.80867397785186768 0
vt 0.51890945434570312 0.80867397785186768 0
vt 0.51890945434570312 0.93338394165039056 0
vt 0.28594830632209776 0.00749802123755216 0
vt 0.37248185276985168 0.00749802123755216 0
vt 0.37248185276985168 0.1322084367275238 0
vt 0.28594830632209776 0.1322084367275238 0
vt 0.61395633220672608 0.93640816211700432 0
vt 0.57972800731658936 0.81144118309020992 0
vt 0.57972806692123416 0.93642258644104 0
vt 0.61395633220672608 0.81142675876617424 0
vt 0.4743691682815552 0.5335170030593872 0
vt 0.56090295314788816 0.5335170030593872 0
vt 0.56090295314788816 0.65822744369506832 0
vt 0.4743691682815552 0.65822744369506832 0
vt 0.16399882733821868 0.92398190498352048 0
vt 0.57921850681304928 0.93642258644104 0
vt 0.66019636392593384 0.9713717103004456 0
vt 0.74640792608261104 0.9713717103004456 0
vt 0.57921838760375976 0.81144118309020992 0
vt 0.1552862673997879 0.93724453449249264 0
vt 0.14610405266284942 0.93724453449249264 0
vt 0.5654364228248596 0.98924297094345088 0
vt 0.61446595191955568 0.81142675876617424 0
vt 0.61446595191955568 0.93640816211700432 0
vt 0.17318104207515716 0.92398190498352048 0
vt 0.17318104207515716 0.9256203174591064 0
vt 0.74485683441162112 0.97292286157608032 0
vt 0.66019636392593384 0.97301000356674192 0
vt 0.14610405266284942 0.93567746877670288 0
vt 0.1552862673997879 0.93567746877670288 0
vt 0.65164792537689208 0.98924297094345088 0
vt 0.16399882733821868 0.9256203174591064 0
vt 0.50872886180877688 0.93338394165039056 0
vt 0.78290408849716192 0.1624108999967575 0
vt 0.78341335058212288 0.16291998326778412 0
vt 0.55937290191650392 0.95181810855865472 0
vt 0.55937290191650392 0.95232772827148432 0
vt 0.98698192834854128 0.31963014602661132 0
vt 0.98698192834854128 0.3201400339603424 0
vt 0.9007704257965088 0.32014000415802 0
vt 0.9002606868743896 0.3250204026699066 0
vt 0.98698228597640992 0.3250204026699066 0
vt 0.98647218942642208 0.32553026080131532 0
vt 0.9002606868743896 0.32553026080131532 0
vt 0.9877117276191712 0.07015100866556168 0
vt 0.98616075515747072 0.07170205563306808 0
vt 0.74640649557113648 0.96220105886459344 0
vt 0.74640649557113648 0.96376800537109376 0
vt 0.65009683370590208 0.99079394340515136 0
vt 0.5654364228248596 0.9908098578453064 0
vt 0.98771184682846064 0.10384193062782288 0
vt 0.98616069555282592 0.10539297014474868 0
vt 0.65164643526077272 0.98064440488815312 0
vt 0.65164643526077272 0.98228269815444944 0
vt 0.78290408849716192 0.17259155213832856 0
vt 0.78341335058212288 0.17208264768123626 0
vt 0.76987123489379888 0.17738275229930878 0
vt 0.86273026466369632 0.07015097886323929 0
vt 0.86428141593933104 0.0717020258307457 0
vt 0.86273044347763056 0.1038418933749199 0
vt 0.47265103459358216 0.95181810855865472 0
vt 0.47316116094589232 0.95232772827148432 0
vt 0.76936197280883792 0.17789177596569062 0
vt 0.75968980789184576 0.17738275229930878 0
vt 0.76019859313964848 0.17789177596569062 0
vt 0.660194993019104 0.96220105886459344 0
vt 0.6617460250854492 0.96375203132629392 0
vt 0.86428141593933104 0.1053929403424263 0
vt 0.56543493270874024 0.98064440488815312 0
vt 0.56698602437973024 0.98219555616378784 0
vt 0.84465968608856208 0.91273033618927008 0
vt 0.84465968608856208 0.90490883588790896 0
vt 0.91677379608154304 0.90490883588790896 0
vt 0.91677379608154304 0.91273033618927008 0
vt 0.875720739364624 0.8195081949234008 0
vt 0.875720739364624 0.81168687343597408 0
vt 0.97953701019287104 0.81168687343597408 0
vt 0.97953701019287104 0.8195081949234008 0
vt 0.90129435062408448 0.76100862026214592 0
vt 0.90129435062408448 0.75318711996078496 0
vt 0.97340857982635504 0.75318711996078496 0
vt 0.97340857982635504 0.76100862026214592 0
vt 0.76308363676071168 0.17738275229930878 0
vt 0.7664774060249328 0.17738275229930878 0
vt 0.51551592350006104 0.80867397785186768 0
vt 0.51212239265441896 0.80867397785186768 0
vt 0.78290408849716192 0.16919800639152526 0
vt 0.78290408849716192 0.1658044457435608 0
vt 0.51212239265441896 0.93338394165039056 0
vt 0.51551592350006104 0.93338394165039056 0
vt 0.15222552418708802 0.93724453449249264 0
vt 0.14916479587554932 0.93724453449249264 0
vt 0.78341335058212288 0.16902843117713928 0
vt 0.78341335058212288 0.1659741997718811 0
vt 0.16705957055091858 0.92398190498352048 0
vt 0.17012029886245728 0.92398190498352048 0
vt 0.76325303316116336 0.17789177596569062 0
vt 0.76630753278732304 0.17789177596569062 0
vt 0.14916479587554932 0.93567746877670288 0
vt 0.15222552418708802 0.93567746877670288 0
vt 0.84465968608856208 0.90751600265502928 0
vt 0.84465968608856208 0.9101231694221496 0
vt 0.97340857982635504 0.75579428672790528 0
vt 0.97340857982635504 0.7584014534950256 0
vt 0.16705957055091858 0.9256203174591064 0
vt 0.17012029886245728 0.9256203174591064 0
vt 0.28594830632209776 0.00749802123755216 0
vt 0.37248185276985168 0.00749802123755216 0
vt 0.37248185276985168 0.1322084367275238 0
vt 0.28594830632209776 0.1322084367275238 0
# 116 texture coords

g Book_13
usemtl Books_mtl
s 1
f 25/91/1 28/96/2 27/95/3 26/92/4
f 2/9/5 4/10/6 8/11/7 6/12/8
f 3/17/9 1/18/10 5/19/11 7/20/12
f 1/5/13 3/44/14 10/45/15 9/46/16
f 3/14/17 7/15/18 11/22/19 10/25/20
f 7/1/21 5/2/22 12/3/23 11/4/24
f 28/94/25 30/100/26 29/99/27 27/93/28
f 6/67/29 8/42/30 14/43/31 13/68/32
f 8/13/33 4/16/34 15/29/35 14/30/36
f 4/47/37 2/48/38 16/49/39 15/50/40
f 26/90/41 32/104/42 31/103/43 25/89/44
f 9/23/45 10/24/46 22/33/47 24/34/48
f 10/64/49 11/51/50 20/52/51 22/65/52
f 11/72/53 12/53/54 17/54/55 20/73/56
f 30/98/57 33/105/58 34/106/59 29/97/60
f 13/28/61 14/37/62 19/55/63 18/56/64
f 14/66/65 15/57/66 21/58/67 19/74/68
f 15/75/69 16/59/70 23/60/71 21/76/72
f 32/102/73 36/112/74 35/111/75 31/101/76
f 19/79/77 20/80/78 17/77/79 34/108/80 33/107/81 18/78/82
f 21/81/83 22/82/84 20/83/85 19/84/86
f 21/86/87 23/87/88 35/109/89 36/110/90 24/88/91 22/85/92
f 2/7/93 6/8/94 28/96/95 25/91/96
f 5/39/97 1/6/98 26/92/99 27/95/100
f 28/94/101 6/40/102 13/41/103 30/100/104
f 12/62/105 5/61/106 27/93/107 29/99/108
f 26/90/109 1/63/110 9/69/111 32/104/112
f 16/71/113 2/70/114 25/89/115 31/103/116
f 13/27/117 18/35/118 33/105/119 30/98/120
f 17/36/121 12/26/122 29/97/123 34/106/124
f 9/31/125 24/32/126 36/112/127 32/102/128
f 23/38/129 16/21/130 31/101/131 35/111/132
#32 polygons

