# Aspose.3D Wavefront OBJ Exporter
# Copyright 2004-2021 Aspose Pty Ltd.
# File created: 07/01/2021 12:27:58

mtllib material.lib

#
# object Book_14
#

v 0.1392059326171875 2.1885375047109162E-13 -5.006790161132807E-06
v 0.1392059326171875 -1.31133947005664E-07 2.99999499320983568
v 17.1392059326171875 9.900526807025573E-14 -2.2649765014648416E-06
v 17.1392059326171875 -1.3113406164334283E-07 2.99999761581420592
v 0.1392059326171875 24.50000000000001776 1.1725470477896923E-07
v 0.1392059326171875 24.49999986886584936 3.0000001172547015
v 17.1392059326171875 24.49999999999989696 2.8590683644469355E-06
v 17.1392059326171875 24.49999986886572504 3.00000297827765072
v 0.23920440673828124 -4.370921050390728E-09 0.09999501705169668
v 17.1392059326171875 -4.371040898873129E-09 0.09999775886535634
v 17.1392059326171875 24.49999999562875528 0.10000288291022226
v 0.23920440673828124 24.49999999562887608 0.1000001410965626
v 0.23920440673828124 24.49999987323698392 2.90000021262213312
v 17.1392059326171875 24.49999987323687024 2.9000028352265032
v 17.1392059326171875 -1.267629269500052E-07 2.89999771118163744
v 0.23920440673828124 -1.2676280189071923E-07 2.89999485015868832
v 0.239227294921875 24.20564269582539296 0.09997259088391004
v 0.239227294921875 24.2056425734335292 2.8999720663630328
v 16.83516883850097664 24.1959532423787138 2.899974926962448
v 16.83516883850097664 24.19595336477059176 0.09997521306474604
v 16.83516883850097664 0.3040541334922296 2.8999691142427792
v 16.83516883850097664 0.30405425588410524 0.09996940034507718
v 0.239227294921875 0.30052172382438592 2.89996625306542336
v 0.239227294921875 0.30052184621625632 0.099966658377011
v -3.814697265625E-06 -8.742255838585919E-08 1.9999949932098368
v -3.814697265625E-06 -4.371116976605436E-08 0.99999499320983792
v -3.814697265625E-06 24.49999995628862944 1.00000011725470372
v -3.814697265625E-06 24.4999999125772412 2.00000011725470283
v 0.09999465942382812 24.49999995483158344 1.03333341879889317
v 0.09999465942382812 24.4999999140342908 1.96666669650122384
v 0.09999465942382812 -8.596551348807998E-08 1.96666169166564736
v 0.09999465942382812 -4.516821987463715E-08 1.03332841396331676
v 0.10001754760742188 24.20564265502810388 1.03330574937695107
v 0.10001754760742188 24.20564261423080764 1.96663914628857136
v 0.10001754760742188 0.30052176462167436 1.96663309457238272
v 0.10001754760742188 0.30052180541897316 1.03329969766076246
# 36 vertices

vn -0.99760943651199344 -1.449374557871419E-08 0.06910527497529928
vn -0.99760943651199344 -1.4493749783683896E-08 0.06910528987646047
vn -0.99760943651199344 1.449374557871419E-08 -0.06910527497529928
vn -0.99760943651199344 1.4493749783683896E-08 -0.06910528987646047
vn -1.612831681541138E-07 -2.1401037764157138E-07 0.99999999999999184
vn -1.612831681541138E-07 -2.1401037764157138E-07 0.99999999999999184
vn -1.612831681541138E-07 -2.1401037764157138E-07 0.99999999999999184
vn -1.612831681541138E-07 -2.1401037764157138E-07 0.99999999999999184
vn 1.612831681541138E-07 2.0914469467392394E-07 -0.999999999999992
vn 1.612831681541138E-07 2.0914469467392394E-07 -0.999999999999992
vn 1.612831681541138E-07 2.0914469467392394E-07 -0.999999999999992
vn 1.612831681541138E-07 2.0914469467392394E-07 -0.999999999999992
vn 0 -0.9999999999999992 -4.3711388508782534E-08
vn 0 -0.9999999403953544 -4.3711385844247275E-08
vn 0 -0.9999999999999992 -4.3711388508782534E-08
vn 0 -0.9999999999999992 -4.3711388508782534E-08
vn 1 0 0
vn 0.9999999403953552 0 0
vn 1 0 0
vn 0.9999999403953552 0 0
vn 0 0.9999999403953544 4.3711385844247275E-08
vn 0 0.9999999999999992 4.3711388508782534E-08
vn 0 0.9999999999999992 4.3711388508782534E-08
vn 0 0.9999999999999992 4.3711388508782534E-08
vn 0 0.9999999403953544 4.3711385844247275E-08
vn 0 0.9999999999999992 4.3711388508782534E-08
vn 0 0.9999999999999992 4.3711388508782534E-08
vn 0 0.9999999999999992 4.3711388508782534E-08
vn 0 0.9999999403953544 4.3711385844247275E-08
vn 0 0.9999999999999992 4.3711388508782534E-08
vn 0 0.9999999403953544 4.3711385844247275E-08
vn 0 0.9999999999999992 4.3711388508782534E-08
vn 1 0 0
vn 0.9999999403953552 0 0
vn 1 0 0
vn 0.9999999403953552 0 0
vn 0 -0.9999999999999992 -4.3711388508782534E-08
vn 0 -0.9999999999999992 -4.3711388508782534E-08
vn 0 -0.9999999999999992 -4.3711388508782534E-08
vn 0 -0.9999999403953544 -4.3711385844247275E-08
vn 0 -0.9999999403953544 -4.3711385844247275E-08
vn 0 -0.9999999999999992 -4.3711388508782534E-08
vn 0 -0.9999999999999992 -4.3711388508782534E-08
vn 0 -0.9999999999999992 -4.3711388508782534E-08
vn -1.7359893433877005E-07 9.372586175238062E-05 1.00000000000409805
vn -1.7359894854962477E-07 9.372587630429585E-05 1.00000000000409805
vn -1.7359893433877005E-07 9.372586902833824E-05 1.00000000000409805
vn -1.7359893433877005E-07 9.372586902833824E-05 1.00000000000409805
vn -9.21406754059717E-05 -2.2600402371786288E-07 0.99999994039534656
vn -9.21406754059717E-05 -2.2600401217154342E-07 0.99999999999999136
vn -9.214068268192932E-05 -2.2600402638239814E-07 0.99999999999999136
vn -9.214068268192932E-05 -2.2600402638239814E-07 0.99999999999999136
vn -1.8680458424569224E-07 -9.218399389276932E-05 0.99999999999597168
vn -1.8680458424569224E-07 -9.218399389010479E-05 0.99999994039132688
vn -1.8680458424569224E-07 -9.218399389276932E-05 0.99999999999597168
vn -1.8680458424569224E-07 -9.218400116872694E-05 0.99999999999597168
vn 0.9999999403953552 7.775645644869649E-05 3.3988426764892943E-12
vn 1 7.775647100061171E-05 3.3988433134580706E-12
vn 1 7.775647100061171E-05 3.3988433134580706E-12
vn 0.9999999403953552 7.775645644869649E-05 3.3988426764892943E-12
vn 1.9076628632319625E-07 9.357647393426483E-05 -0.99999994039126608
vn 1.9076630053405097E-07 9.357648121288697E-05 -0.99999999999591088
vn 1.9076630053405097E-07 9.357648121288697E-05 -0.99999999999591088
vn 1.9076628632319625E-07 9.357647393692936E-05 -0.99999999999591088
vn 9.292484901379794E-05 2.2600401217154342E-07 -0.99999999999999136
vn 9.292484173784032E-05 2.2600402371786288E-07 -0.99999994039534656
vn 9.292484901379794E-05 2.2600402638239814E-07 -0.99999999999999136
vn 9.292484901379794E-05 2.2600402638239814E-07 -0.99999999999999136
vn 1.807995744229629E-07 -9.451095940682386E-05 -1.00000000000413225
vn 1.807995602121082E-07 -9.451094485490863E-05 -1.00000000000413225
vn 1.807995602121082E-07 -9.451095213086624E-05 -1.00000000000413225
vn 1.8079954600125347E-07 -9.451094485490863E-05 -1.00000000000413225
vn 1 -7.616145740030327E-05 -3.329123055787614E-12
vn 1 -7.616145740030327E-05 -3.329123055787614E-12
vn 0.9999999403953552 -7.616145740030327E-05 -3.329123055787614E-12
vn 1 -7.616145740030327E-05 -3.329123055787614E-12
vn 0.00058059056755155 0.9999998807907096 4.3711383179712016E-08
vn 0.00058059050934389 0.9999998211860648 4.371138073722136E-08
vn 0.00058059062575921 0.9999998807907096 4.3711383179712016E-08
vn 0.00058059056755155 0.9999998211860648 4.371138073722136E-08
vn 0.00058059056755155 0.9999998807907096 4.3711383179712016E-08
vn 0.00058059068396687 0.9999998807907096 4.3711383179712016E-08
vn 0.9999999403953552 0 0
vn 1 0 0
vn 0.9999999403953552 0 0
vn 1 0 0
vn 0.00021166416991036385 -0.9999999999999992 -4.3711388508782534E-08
vn 0.0002116641408065334 -0.9999999999999992 -4.3711388508782534E-08
vn 0.00021166415535844862 -0.9999999999999992 -4.3711388508782534E-08
vn 0.00021166415535844862 -0.9999999999999992 -4.3711388508782534E-08
vn 0.0002116641408065334 -0.9999999403953544 -4.3711385844247275E-08
vn 0.00021166415535844862 -0.9999999999999992 -4.3711388508782534E-08
vn -0.99044895172119136 -2.8918194866500713E-08 0.13788014650344738
vn -0.99044889211654656 -2.8918192451765634E-08 0.13788013160228618
vn -0.99760943651199344 -1.4493749783683896E-08 0.06910528987646047
vn -0.99760943651199344 -1.449374557871419E-08 0.06910527497529928
vn -0.99044895172119136 2.8918194866500713E-08 -0.13788014650344738
vn -0.99044889211654656 2.8918192451765634E-08 -0.13788013160228618
vn -0.99760943651199344 1.4493749783683896E-08 -0.06910528987646047
vn -0.99760943651199344 1.449374557871419E-08 -0.06910527497529928
vn 0 0.9999999403953544 4.3711385844247275E-08
vn 0 0.9999999999999992 4.3711388508782534E-08
vn 0 0.9999999999999992 4.3711388508782534E-08
vn 0 0.9999999403953544 4.3711385844247275E-08
vn 0 0.9999999999999992 4.3711388508782534E-08
vn 0 0.9999999999999992 4.3711388508782534E-08
vn 0 0.9999999999999992 4.3711388508782534E-08
vn 0 0.9999999999999992 4.3711388508782534E-08
vn 0 -0.9999999403953544 -4.3711385844247275E-08
vn 0 -0.9999999999999992 -4.3711388508782534E-08
vn 0 -0.9999999999999992 -4.3711388508782534E-08
vn 0 -0.9999999403953544 -4.3711385844247275E-08
vn 0 -0.9999999999999992 -4.3711388508782534E-08
vn 0 -0.9999999999999992 -4.3711388508782534E-08
vn 0 -0.9999999999999992 -4.3711388508782534E-08
vn 0 -0.9999999999999992 -4.3711388508782534E-08
vn 0.98905879259109504 9.08679667671608E-05 -0.14752140640815284
vn 0.98905885219573968 9.086797404311842E-05 -0.14752140640815284
vn 0.98905879259109504 9.086797404311842E-05 -0.14752140640815284
vn 0.98905885219573968 9.086797404311842E-05 -0.14752140640815284
vn 0.98905885219573968 6.308028782509023E-05 0.14752140641488212
vn 0.98905879259109504 6.308028782509023E-05 0.14752140641488212
vn 0.98905879259109504 6.308028782509023E-05 0.14752140641488212
vn 0.98905885219573968 6.308028782509023E-05 0.14752140641488212
vn 0.98905891180038448 -6.132620369825315E-05 0.14752142131060534
vn 0.98905885219573968 -6.13261891450334E-05 0.14752139150828292
vn 0.98905885219573968 -6.13261964216294E-05 0.14752140640944414
vn 0.98905891180038448 -6.13261964216294E-05 0.14752140640944414
vn 0.98905885219573968 -8.937220804650092E-05 -0.1475214064160314
vn 0.98905879259109504 -8.937220077054331E-05 -0.1475214064160314
vn 0.98905885219573968 -8.937220804650092E-05 -0.1475214064160314
vn 0.98905879259109504 -8.937220077054331E-05 -0.1475214064160314
# 132 vertex normals

vt 0.55937254428863528 0.96849930286407472 0
vt 0.47265067696571352 0.96849930286407472 0
vt 0.47316080331802368 0.96798968315124512 0
vt 0.55937254428863528 0.96798968315124512 0
vt 0.84572893381118768 0.9385984539985656 0
vt 0.8296904563903808 0.15433050692081452 0
vt 0.81441974639892576 0.15433050692081452 0
vt 0.81441974639892576 0.02962039038538933 0
vt 0.09904520958662034 0.13912612199783326 0
vt 0.18557879328727724 0.13912612199783326 0
vt 0.18557879328727724 0.26383650302886964 0
vt 0.09904517233371734 0.26383650302886964 0
vt 0.64869391918182376 0.93640184402465824 0
vt 0.60950356721878048 0.81142723560333248 0
vt 0.60950356721878048 0.93640863895416256 0
vt 0.64869391918182376 0.81142044067382816 0
vt 0.1924966722726822 0.2707543969154358 0
vt 0.27903032302856444 0.2707543969154358 0
vt 0.27903032302856444 0.39546471834182736 0
vt 0.1924966722726822 0.39546468853950504 0
vt 0.8296904563903808 0.02962039038538933 0
vt 0.1282058209180832 0.92403429746627808 0
vt 0.60899394750595096 0.93640863895416256 0
vt 0.74881178140640256 0.32754263281822204 0
vt 0.74847918748855584 0.24133138358592988 0
vt 0.60899394750595096 0.81142723560333248 0
vt 0.16038309037685394 0.92552709579467776 0
vt 0.14609958231449128 0.92552709579467776 0
vt 0.66019636392593384 0.97601288557052608 0
vt 0.64920353889465336 0.81142044067382816 0
vt 0.64920353889465336 0.93640184402465824 0
vt 0.14248932898044586 0.92403429746627808 0
vt 0.14248932898044586 0.9255679249763488 0
vt 0.75003576278686528 0.24287647008895876 0
vt 0.75034534931182864 0.32753670215606688 0
vt 0.14609958231449128 0.92407512664794928 0
vt 0.16038309037685394 0.92407512664794928 0
vt 0.74640792608261104 0.97601288557052608 0
vt 0.1282058209180832 0.9255679249763488 0
vt 0.83799117803573616 0.16234822571277618 0
vt 0.83850020170211792 0.16285713016986846 0
vt 0.47265124320983888 0.97388982772827152 0
vt 0.47265124320983888 0.97338014841079712 0
vt 0.932450532913208 0.9385985136032104 0
vt 0.932450532913208 0.9391080737113952 0
vt 0.84623903036117552 0.93910801410675056 0
vt 0.5593698024749756 0.99006164073944096 0
vt 0.47264793515205384 0.99006164073944096 0
vt 0.473158061504364 0.98955202102661136 0
vt 0.5593698024749756 0.98955202102661136 0
vt 0.98771208524703984 0.0566745363175869 0
vt 0.98616105318069456 0.05822561681270599 0
vt 0.74531072378158576 0.98156279325485232 0
vt 0.74531072378158576 0.9830146431922912 0
vt 0.74485683441162112 0.97756391763687136 0
vt 0.66019636392593384 0.97746473550796512 0
vt 0.9877114295959472 0.1173182800412178 0
vt 0.98616033792495728 0.11886931955814362 0
vt 0.74640649557113648 0.95761501789093024 0
vt 0.74640649557113648 0.95914840698242192 0
vt 0.83799117803573616 0.17761941254138946 0
vt 0.83850020170211792 0.17711050808429718 0
vt 0.8338583111763 0.16177566349506378 0
vt 0.86273068189620976 0.0566745214164257 0
vt 0.86428183317184448 0.0582255944609642 0
vt 0.86273002624511712 0.11731824278831482 0
vt 0.55937308073043824 0.97388982772827152 0
vt 0.5588629841804504 0.97338014841079712 0
vt 0.83436697721481328 0.16228456795215606 0
vt 0.83385819196701056 0.17704637348651886 0
vt 0.83436697721481328 0.17653723061084748 0
vt 0.6590992212295532 0.98156279325485232 0
vt 0.6606503129005432 0.98311382532119744 0
vt 0.8642810583114624 0.11886928230524064 0
vt 0.660194993019104 0.95761501789093024 0
vt 0.6617460250854492 0.95916610956192016 0
vt 0.89019346237182624 0.839547336101532 0
vt 0.89019346237182624 0.82738053798675536 0
vt 0.962307333946228 0.82738053798675536 0
vt 0.962307333946228 0.839547336101532 0
vt 0.76784253120422368 0.86771017313003536 0
vt 0.76784253120422368 0.85554355382919312 0
vt 0.87165784835815424 0.85554355382919312 0
vt 0.87165784835815424 0.86771017313003536 0
vt 0.90533506870269776 0.74270725250244144 0
vt 0.90533506870269776 0.7305404543876648 0
vt 0.97744905948638912 0.7305404543876648 0
vt 0.97744905948638912 0.74270725250244144 0
vt 0.8338582515716552 0.1719561368227005 0
vt 0.8338582515716552 0.16686590015888214 0
vt 0.81950998306274416 0.15433050692081452 0
vt 0.82460021972656256 0.15433050692081452 0
vt 0.83799117803573616 0.17252901196479798 0
vt 0.83799117803573616 0.16743862628936768 0
vt 0.82460021972656256 0.02962039038538933 0
vt 0.81950998306274416 0.02962039038538933 0
vt 0.15562191605567932 0.92552709579467776 0
vt 0.1508607566356659 0.92552709579467776 0
vt 0.83850020170211792 0.17235937714576722 0
vt 0.83850020170211792 0.16760826110839844 0
vt 0.13296699523925782 0.92403429746627808 0
vt 0.13772815465927124 0.92403429746627808 0
vt 0.83436697721481328 0.1717863380908966 0
vt 0.83436697721481328 0.16703546047210694 0
vt 0.89019346237182624 0.8354917168617248 0
vt 0.89019346237182624 0.83143615722656256 0
vt 0.15562191605567932 0.92407512664794928 0
vt 0.1508607566356659 0.92407512664794928 0
vt 0.97744905948638912 0.734596073627472 0
vt 0.97744905948638912 0.73865163326263424 0
vt 0.13296699523925782 0.9255679249763488 0
vt 0.13772815465927124 0.9255679249763488 0
# 112 texture coords

g Book_14
usemtl Books_mtl
s 1
f 25/91/1 28/96/2 27/95/3 26/92/4
f 2/9/5 4/10/6 8/11/7 6/12/8
f 3/17/9 1/18/10 5/19/11 7/20/12
f 1/5/13 3/44/14 10/45/15 9/46/16
f 3/14/17 7/15/18 11/23/19 10/26/20
f 7/1/21 5/2/22 12/3/23 11/4/24
f 28/94/25 30/100/26 29/99/27 27/93/28
f 6/67/29 8/42/30 14/43/31 13/68/32
f 8/13/33 4/16/34 15/30/35 14/31/36
f 4/47/37 2/48/38 16/49/39 15/50/40
f 26/90/41 32/104/42 31/103/43 25/89/44
f 9/24/45 10/25/46 22/34/47 24/35/48
f 10/64/49 11/51/50 20/52/51 22/65/52
f 11/72/53 12/53/54 17/54/55 20/73/56
f 30/98/57 34/108/58 33/107/59 29/97/60
f 13/29/61 14/38/62 19/55/63 18/56/64
f 14/66/65 15/57/66 21/58/67 19/74/68
f 15/75/69 16/59/70 23/60/71 21/76/72
f 32/102/73 36/112/74 35/111/75 31/101/76
f 19/79/77 20/80/78 17/77/79 33/105/80 34/106/81 18/78/82
f 21/81/83 22/82/84 20/83/85 19/84/86
f 21/86/87 23/87/88 35/109/89 36/110/90 24/88/91 22/85/92
f 2/7/93 6/8/94 28/96/95 25/91/96
f 5/21/97 1/6/98 26/92/99 27/95/100
f 28/94/101 6/40/102 13/41/103 30/100/104
f 12/62/105 5/61/106 27/93/107 29/99/108
f 26/90/109 1/63/110 9/69/111 32/104/112
f 16/71/113 2/70/114 25/89/115 31/103/116
f 13/28/117 18/36/118 34/108/119 30/98/120
f 17/37/121 12/27/122 29/97/123 33/107/124
f 9/32/125 24/33/126 36/112/127 32/102/128
f 23/39/129 16/22/130 31/101/131 35/111/132
#32 polygons

