# Aspose.3D Wavefront OBJ Exporter
# Copyright 2004-2021 Aspose Pty Ltd.
# File created: 07/01/2021 08:02:08

mtllib material.lib

#
# object Book_01
#

v -1.52587890625E-05 7.243016979876603E-13 -1.6570091247558577E-05
v -1.52587890625E-05 20.50000000000061464 -1.3647449858489298E-05
v -1.52587890625E-05 20.49999991257781672 1.99998682938729776
v 14.49996185302734376 20.50001517136677624 1.99998921357375584
v 14.49996185302734376 20.50004577636770264 -1.1382471356075882E-05
v 14.49995422363281248 1.5171366900135198E-05 1.99998593330449808
v 14.49995422363281248 4.5776367812796384E-05 -1.430511274514516E-05
v -1.52587890625E-05 -8.742206857032242E-08 1.99998378753661904
# 8 vertices

vn -1 0 0
vn -0.9999999403953552 0 0
vn -1 0 0
vn -1 0 0
vn -1.5620544502326084E-07 -1.541980101382734E-07 0.9999999403953496
vn -1.5620544502326084E-07 -1.541980101382734E-07 0.9999999403953496
vn -1.5620544502326084E-07 -1.54198019908236E-07 0.9999999999999944
vn -1.5620544502326084E-07 -1.5419802701366336E-07 0.9999999999999944
vn 1.5620524607129482E-07 1.4256784219845997E-07 -0.99999999999999488
vn 1.5620524607129482E-07 1.4256784930388733E-07 -0.99999999999999488
vn 1.5620524607129482E-07 1.4256784930388733E-07 -0.99999999999999488
vn 1.562052318604401E-07 1.4256783242849735E-07 -0.99999994039535008
vn -2.104665099977865E-06 0.99999999999966576 7.673103646022028E-06
vn -2.104665099977865E-06 0.99999994039502112 7.673103188610142E-06
vn -2.104665099977865E-06 0.99999999999966576 7.673103646022028E-06
vn -2.104665099977865E-06 0.99999994039502112 7.673103188610142E-06
vn 1 -3.7216560144745633E-07 -5.695062982946887E-12
vn 1 -3.721655730257469E-07 -5.695062981676337E-12
vn 1 -3.7216560144745633E-07 -5.695062982946887E-12
vn 1 -3.721655730257469E-07 -5.695062981676337E-12
vn 2.104666236846242E-06 -0.99999999999966576 -7.67310501026408E-06
vn 2.104666236846242E-06 -0.99999994039502112 -7.673104552852195E-06
vn 2.104666236846242E-06 -0.99999999999966576 -7.67310501026408E-06
vn 2.104666236846242E-06 -0.99999994039502112 -7.673104552852195E-06
# 24 vertex normals

vt 0.84834682941436768 0.20537969470024108 0
vt 0.85852718353271488 0.20537969470024108 0
vt 0.85852718353271488 0.3097301721572876 0
vt 0.84834694862365728 0.3097301721572876 0
vt 0.31377816200256348 0.65266507863998416 0
vt 0.38758641481399536 0.65266513824462888 0
vt 0.38758641481399536 0.75701457262039184 0
vt 0.31377816200256348 0.75701451301574704 0
vt 0.66134679317474368 0.34296840429306032 0
vt 0.73515510559082032 0.34296849370002748 0
vt 0.73515510559082032 0.44731780886650088 0
vt 0.66134679317474368 0.44731780886650088 0
vt 0.92858386039733888 0.91330730915069584 0
vt 0.92858386039733888 0.9046167731285096 0
vt 0.99158930778503424 0.9046167731285096 0
vt 0.99158930778503424 0.91330730915069584 0
vt 0.84477603435516352 0.93076372146606448 0
vt 0.84477603435516352 0.92207324504852288 0
vt 0.9338535070419312 0.92207324504852288 0
vt 0.9338535070419312 0.93076372146606448 0
vt 0.90264117717742912 0.78040969371795648 0
vt 0.90264117717742912 0.77171921730041504 0
vt 0.96564674377441408 0.77171921730041504 0
vt 0.96564674377441408 0.78040969371795648 0
# 24 texture coords

g Book_01
usemtl Books_mtl
s 1
f 1/1/1 8/2/2 3/3/3 2/4/4
f 8/5/5 6/6/6 4/7/7 3/8/8
f 7/9/9 1/10/10 2/11/11 5/12/12
f 2/13/13 3/14/14 4/15/15 5/16/16
f 6/17/17 7/18/18 5/19/19 4/20/20
f 6/22/21 8/23/22 1/24/23 7/21/24
#6 polygons

