# Aspose.3D Wavefront OBJ Exporter
# Copyright 2004-2021 Aspose Pty Ltd.
# File created: 07/01/2021 12:24:54

mtllib material.lib

#
# object Book_09
#

v 0.13920974731445312 2.1885375047109162E-13 -5.006790161132807E-06
v 0.13920974731445312 -1.31133947005664E-07 2.99999499320983568
v 17.13920974731445312 9.900526807025573E-14 -2.2649765014648416E-06
v 17.13920974731445312 -1.3113406164334283E-07 2.99999761581420592
v 0.13920974731445312 24.50000000000001776 1.1725470477896923E-07
v 0.13920974731445312 24.49999986886584936 3.0000001172547015
v 17.13920974731445312 24.49999999999989696 2.8590683644469355E-06
v 17.13920974731445312 24.49999986886572504 3.00000297827765072
v 0.23920822143554688 -4.370921050390728E-09 0.09999501705169668
v 17.13920974731445312 -4.371040898873129E-09 0.09999775886535634
v 17.13920974731445312 24.49999999562875528 0.10000288291022226
v 0.23920822143554688 24.49999999562887608 0.1000001410965626
v 0.23920822143554688 24.49999987323698392 2.90000021262213312
v 17.13920974731445312 24.49999987323687024 2.9000028352265032
v 17.13920974731445312 -1.267629269500052E-07 2.89999771118163744
v 0.23920822143554688 -1.2676280189071923E-07 2.89999485015868832
v 0.23921966552734376 0.30055236379369872 0.09998227479527612
v 16.83516311645507808 0.30407714406702156 0.09998489755371926
v 16.83516311645507808 24.19596862355898636 0.09999047185447552
v 0.23921966552734376 24.19486999074660004 0.09998784920208264
v 0.23921966552734376 24.19486986835469368 2.89998827835552224
v 16.83516311645507808 24.19596850116707996 2.89999090100791472
v 16.83516311645507808 0.30407702167511468 2.89998532670715872
v 0.23921966552734376 0.30055224140178144 2.89998294236729456
v -7.62939453125E-06 7.541971972864133E-06 1.9999949932101704
v -7.62939453125E-06 7.585683364089339E-06 0.99999493360552656
v -7.62939453125E-06 24.49999995628862944 1.00000005765005894
v -7.62939453125E-06 24.4999999125772412 2.00000011725470283
v 0.0999908447265625 24.49999995483158344 1.03333341879889317
v 0.0999908447265625 24.4999999140342908 1.96666669650122384
v 0.0999908447265625 7.543429017761912E-06 1.96666169166598096
v 0.0999908447265625 7.584226316586159E-06 1.03332829475436072
v 0.10000228881835938 24.19486990915199344 1.96665488144390192
v 0.10000228881835938 24.19486994994930384 1.03332124611370268
v 0.10000228881835938 0.30055995239092592 1.03331579091651915
v 0.10000228881835938 0.30055991159362188 1.96664930703742896
# 36 vertices

vn -0.9976090788841248 -1.4493935440729189E-08 0.06910917162895147
vn -0.99760919809341424 -1.4493903174872536E-08 0.06910902261733953
vn -0.99760919809341424 1.449390074625967E-08 -0.06910900771617834
vn -0.9976090788841248 1.4493938771398263E-08 -0.06910918653011267
vn -1.612831681541138E-07 -2.1401037764157138E-07 0.99999999999999184
vn -1.612831681541138E-07 -2.1401037764157138E-07 0.99999999999999184
vn -1.612831681541138E-07 -2.1401037764157138E-07 0.99999999999999184
vn -1.612831681541138E-07 -2.1401037764157138E-07 0.99999999999999184
vn 1.612831681541138E-07 2.0914469467392394E-07 -0.999999999999992
vn 1.612831681541138E-07 2.0914469467392394E-07 -0.999999999999992
vn 1.612831681541138E-07 2.0914469467392394E-07 -0.999999999999992
vn 1.612831681541138E-07 2.0914469467392394E-07 -0.999999999999992
vn 0 -0.9999999999999992 -4.3711388508782534E-08
vn 0 -0.9999999403953544 -4.3711385844247275E-08
vn 0 -0.9999999999999992 -4.3711388508782534E-08
vn 0 -0.9999999999999992 -4.3711388508782534E-08
vn 1 0 0
vn 0.9999999403953552 0 0
vn 1 0 0
vn 0.9999999403953552 0 0
vn 0 0.9999999403953544 4.3711385844247275E-08
vn 0 0.9999999999999992 4.3711388508782534E-08
vn 0 0.9999999999999992 4.3711388508782534E-08
vn 0 0.9999999999999992 4.3711388508782534E-08
vn 0 0.9999999403953544 4.3711385844247275E-08
vn 0 0.9999999999999992 4.3711388508782534E-08
vn 0 0.9999999999999992 4.3711388508782534E-08
vn 0 0.9999999999999992 4.3711388508782534E-08
vn 0 0.9999999403953544 4.3711385844247275E-08
vn 0 0.9999999999999992 4.3711388508782534E-08
vn 0 0.9999999403953544 4.3711385844247275E-08
vn 0 0.9999999999999992 4.3711388508782534E-08
vn 1 0 0
vn 0.9999999403953552 0 0
vn 1 0 0
vn 0.9999999403953552 0 0
vn 0 -0.9999999999999992 -4.3711388508782534E-08
vn 0 -0.9999999999999992 -4.3711388508782534E-08
vn 0 -0.9999999999999992 -4.3711388508782534E-08
vn 0 -0.9999999403953544 -4.3711385844247275E-08
vn 0 -0.9999999999999992 -4.3711388508782534E-08
vn 0 -0.9999999999999992 -4.3711388508782534E-08
vn 0 -0.9999999999999992 -4.3711388508782534E-08
vn 0 -0.9999999999999992 -4.3711388508782534E-08
vn -1.6460323593037174E-07 4.2263111772689044E-05 1.00000000000184852
vn -1.6460322171951702E-07 4.2263104499395965E-05 0.99999994039720368
vn -1.6460322171951702E-07 4.226310813471024E-05 1.00000000000184852
vn -1.646032075086623E-07 4.226310813737477E-05 0.99999994039720368
vn -4.156003342359327E-05 -2.2107720565323064E-07 0.99999994039534672
vn -4.1560037061572075E-05 -2.2107723673947532E-07 0.99999999999999152
vn -4.156003342359327E-05 -2.210772225286206E-07 0.99999999999999152
vn -4.156003342359327E-05 -2.210772225286206E-07 0.99999999999999152
vn -1.5882521609000833E-07 -4.0473122844497667E-05 0.99999999999823216
vn -1.588252018791536E-07 -4.047312284183313E-05 0.99999994039358736
vn -1.5882521609000833E-07 -4.047312284183313E-05 0.99999994039358736
vn -1.5882521609000833E-07 -4.0473122844497667E-05 0.99999999999823216
vn 1 3.750562973436897E-05 1.6394231485599223E-12
vn 1 3.750563337234777E-05 1.6394233111902481E-12
vn 1 3.750562973436897E-05 1.6394231485599223E-12
vn 0.9999999403953552 3.750562973436897E-05 1.6394231485599223E-12
vn 1.5531115593603317E-07 3.91050136177018E-05 -0.99999994039364704
vn 1.553111701468879E-07 3.9105013620366336E-05 -0.99999999999829184
vn 1.553111701468879E-07 3.9105013620366336E-05 -0.99999999999829184
vn 1.553111701468879E-07 3.91050136177018E-05 -0.99999994039364704
vn 3.9991733501665294E-05 2.2107725095033004E-07 -0.99999999999999152
vn 3.999172986368649E-05 2.2107724828579478E-07 -0.99999994039534672
vn 3.9991733501665294E-05 2.2107725095033004E-07 -0.99999999999999152
vn 3.99917371396441E-05 2.2107726516118476E-07 -0.99999999999999152
vn 1.6081627052244585E-07 -4.009624064837958E-05 -0.99999994039710912
vn 1.6081628473330056E-07 -4.009624428369385E-05 -1.0000000000017537
vn 1.6081627052244585E-07 -4.009623701040077E-05 -0.99999994039710912
vn 1.6081627052244585E-07 -4.009624064571504E-05 -1.0000000000017537
vn 1 -3.80768651666585E-05 -1.6643926498529152E-12
vn 1 -3.80768651666585E-05 -1.6643926498529152E-12
vn 1 -3.8076868804637316E-05 -1.6643928057069775E-12
vn 1 -3.80768651666585E-05 -1.6643926498529152E-12
vn -6.583072536159307E-05 0.9999999999999992 4.3711388508782534E-08
vn -6.583072536159307E-05 0.9999999403953544 4.3711385844247275E-08
vn -6.583072536159307E-05 0.9999999999999992 4.3711388508782534E-08
vn -6.583072536159307E-05 0.9999999403953544 4.3711385844247275E-08
vn -6.583072536159307E-05 0.9999999403953544 4.3711385844247275E-08
vn -6.583072536159307E-05 0.9999999999999992 4.3711388508782534E-08
vn 0.9999999403953552 0 0
vn 1 0 0
vn 0.9999999403953552 0 0
vn 1 0 0
vn 0.00021090217342134565 -0.9999999999999992 -4.3711388508782534E-08
vn 0.00021090215886943042 -0.9999999999999992 -4.3711388508782534E-08
vn 0.0002109021443175152 -0.9999999999999992 -4.3711388508782534E-08
vn 0.00021090217342134565 -0.9999999999999992 -4.3711388508782534E-08
vn 0.00021090215886943042 -0.9999999999999992 -4.3711388508782534E-08
vn 0.0002109021443175152 -0.9999999403953544 -4.3711385844247275E-08
vn -0.99044793844223024 -2.8918500344365938E-08 0.1378875821828831
vn -0.99044787883758544 -2.891849551489578E-08 0.13788755238056072
vn -0.99760919809341424 -1.4493903174872536E-08 0.06910902261733953
vn -0.9976090788841248 -1.4493935440729189E-08 0.06910917162895147
vn -0.99044787883758544 2.891849551489578E-08 -0.13788755238056072
vn -0.99044787883758544 2.89184997059877E-08 -0.13788756728172192
vn -0.9976090788841248 1.4493938771398263E-08 -0.06910918653011267
vn -0.99760919809341424 1.449390074625967E-08 -0.06910900771617834
vn 0 0.9999999403953544 4.3711385844247275E-08
vn 0 0.9999999999999992 4.3711388508782534E-08
vn 0 0.9999999999999992 4.3711388508782534E-08
vn 0 0.9999999999999992 4.3711388508782534E-08
vn 0 0.9999999999999992 4.3711388508782534E-08
vn 0 0.9999999403953544 4.3711385844247275E-08
vn 0 0.9999999999999992 4.3711388508782534E-08
vn 0 0.9999999999999992 4.3711388508782534E-08
vn -4.800793249160051E-06 -1.00000000000031397 7.157365707888275E-06
vn -4.8007927944127005E-06 -0.99999994039566912 7.157365255805459E-06
vn -4.800793249160051E-06 -1.00000000000031397 7.157365707888275E-06
vn -4.800793249160051E-06 -1.00000000000031397 7.1573661626356255E-06
vn -4.800795068149455E-06 -0.99999999999968448 -7.24478848490584E-06
vn -4.800795522896806E-06 -0.99999994039503968 -7.2447880274939536E-06
vn -4.800795522896806E-06 -0.99999999999968448 -7.244788030158489E-06
vn -4.800795522896806E-06 -0.99999999999968448 -7.24478848490584E-06
vn 0.98905766010284416 4.2843456349389575E-05 -0.1475292593222012
vn 0.98905766010284416 4.284345635005571E-05 -0.1475292742233624
vn 0.98905771970748896 4.2843459988034516E-05 -0.1475292742233624
vn 0.98905760049819952 4.2843456349389575E-05 -0.1475292593222012
vn 0.98905766010284416 3.1199496850847774E-05 0.14752928912776008
vn 0.98905766010284416 3.1199496850847774E-05 0.14752928912776008
vn 0.98905766010284416 3.1199496850847774E-05 0.14752928912776008
vn 0.98905771970748896 3.1199496850209396E-05 0.1475293040289213
vn 0.98905771970748896 -3.145125668418958E-05 0.14752930402618278
vn 0.98905766010284416 -3.145125668418958E-05 0.14752930402618278
vn 0.98905771970748896 -3.145126032280676E-05 0.14752931892734398
vn 0.98905771970748896 -3.1451256684827955E-05 0.14752931892734398
vn 0.98905760049819952 -4.362748729205834E-05 -0.14752928912830334
vn 0.98905766010284416 -4.362748729205834E-05 -0.14752928912830334
vn 0.98905766010284416 -4.362748729205834E-05 -0.14752928912830334
vn 0.98905771970748896 -4.362749092939877E-05 -0.14752930402946456
# 132 vertex normals

vt 0.12129288911819458 0.86155891418457024 0
vt 0.12129288911819458 0.77483731508255008 0
vt 0.12180295586585998 0.77534741163253792 0
vt 0.12180295586585998 0.86155891418457024 0
vt 0.74784696102142336 0.09709065407514572 0
vt 0.75804531574249264 0.20537969470024108 0
vt 0.77331602573394768 0.20537969470024108 0
vt 0.77331614494323728 0.33009028434753416 0
vt 0.37939974665641784 0.27075463533401488 0
vt 0.46593338251113888 0.27075463533401488 0
vt 0.46593332290649416 0.39546507596969608 0
vt 0.37939974665641784 0.39546507596969608 0
vt 0.66358184814453128 0.93639707565307616 0
vt 0.68890458345413208 0.81140494346618656 0
vt 0.68890458345413208 0.93638634681701664 0
vt 0.66358178853988648 0.81141567230224608 0
vt 0.00559334643185138 0.2707543671131134 0
vt 0.09212708473205566 0.2707543969154358 0
vt 0.09212708473205566 0.39546459913253784 0
vt 0.00559334643185138 0.39546456933021544 0
vt 0.75804555416107184 0.33009028434753416 0
vt 0.14609883725643158 0.92986440658569328 0
vt 0.68839496374130248 0.93638634681701664 0
vt 0.65910059213638304 0.98583328723907472 0
vt 0.74531215429306032 0.98583328723907472 0
vt 0.68839496374130248 0.81140494346618656 0
vt 0.16547468304634094 0.90809202194213872 0
vt 0.15119116008281708 0.90809202194213872 0
vt 0.66019636392593384 0.96679645776748656 0
vt 0.66409134864807128 0.81141567230224608 0
vt 0.66409140825271608 0.93639707565307616 0
vt 0.16038236021995544 0.92986440658569328 0
vt 0.16038234531879426 0.93139797449111936 0
vt 0.74376106262207024 0.98738443851470944 0
vt 0.65910059213638304 0.9873668551445008 0
vt 0.15119114518165588 0.90652990341186528 0
vt 0.16547466814517974 0.90652990341186528 0
vt 0.74640792608261104 0.96679645776748656 0
vt 0.14609882235527038 0.93139797449111936 0
vt 0.75968980789184576 0.16932478547096252 0
vt 0.76019895076751712 0.16881588101387024 0
vt 0.12668347358703614 0.77483791112899776 0
vt 0.12719348073005676 0.77483791112899776 0
vt 0.74784690141677856 0.01036872994154691 0
vt 0.74835658073425296 0.01036872994154691 0
vt 0.74835658073425296 0.09658053517341614 0
vt 0.75374716520309456 0.0107051869854331 0
vt 0.75374716520309456 0.0974271073937416 0
vt 0.75323754549026496 0.09691698849201202 0
vt 0.75323754549026496 0.0107051869854331 0
vt 0.98771238327026368 0.06341271102428436 0
vt 0.9861613512039184 0.06496375799179077 0
vt 0.74531060457229616 0.99011588096618656 0
vt 0.74531060457229616 0.9916779398918152 0
vt 0.74485683441162112 0.96834748983383184 0
vt 0.66019636392593384 0.9683584570884704 0
vt 0.9877117276191712 0.07688906788825989 0
vt 0.98616057634353632 0.0784401074051857 0
vt 0.15118180215358734 0.97675955295562752 0
vt 0.15118180215358734 0.97829306125640864 0
vt 0.77495872974395744 0.16932478547096252 0
vt 0.77444958686828608 0.16881588101387024 0
vt 0.85314863920211792 0.16234822571277618 0
vt 0.8627309799194336 0.06341280788183212 0
vt 0.86428213119506832 0.06496384739875793 0
vt 0.86273032426834112 0.07688899338245392 0
vt 0.12668345868587494 0.86155951023101808 0
vt 0.12719345092773438 0.86104941368103024 0
vt 0.85365778207778928 0.16285724937915802 0
vt 0.85314863920211792 0.17762251198291778 0
vt 0.85365778207778928 0.17711372673511506 0
vt 0.65909910202026368 0.99011588096618656 0
vt 0.66065019369125368 0.99166691303253168 0
vt 0.86428135633468624 0.07844004034996033 0
vt 0.06496992707252502 0.97675955295562752 0
vt 0.06652101874351501 0.97831070423126224 0
vt 0.89019346237182624 0.839547336101532 0
vt 0.89019346237182624 0.82738053798675536 0
vt 0.962307333946228 0.82738053798675536 0
vt 0.962307333946228 0.839547336101532 0
vt 0.76784253120422368 0.86771017313003536 0
vt 0.76784253120422368 0.85554355382919312 0
vt 0.87165784835815424 0.85554355382919312 0
vt 0.87165784835815424 0.86771017313003536 0
vt 0.90533506870269776 0.74270725250244144 0
vt 0.90533506870269776 0.7305404543876648 0
vt 0.97744905948638912 0.7305404543876648 0
vt 0.97744905948638912 0.74270725250244144 0
vt 0.85314863920211792 0.17253108322620392 0
vt 0.85314863920211792 0.16743965446949006 0
vt 0.76822578907012944 0.20537969470024108 0
vt 0.76313555240631104 0.20537969470024108 0
vt 0.76986908912658688 0.16932478547096252 0
vt 0.76477944850921632 0.16932478547096252 0
vt 0.76313573122024544 0.33009028434753416 0
vt 0.76822596788406368 0.33009028434753416 0
vt 0.16071350872516632 0.90809202194213872 0
vt 0.1559523344039917 0.90809202194213872 0
vt 0.76969939470291136 0.16881588101387024 0
vt 0.76494914293289184 0.16881588101387024 0
vt 0.1508600115776062 0.92986440658569328 0
vt 0.15562118589878082 0.92986440658569328 0
vt 0.85365778207778928 0.1723615676164627 0
vt 0.85365778207778928 0.16760940849781036 0
vt 0.1559523195028305 0.90652990341186528 0
vt 0.16071349382400512 0.90652990341186528 0
vt 0.89019346237182624 0.83143615722656256 0
vt 0.89019346237182624 0.8354917168617248 0
vt 0.15562117099761962 0.93139797449111936 0
vt 0.150859996676445 0.93139797449111936 0
vt 0.97744905948638912 0.73865163326263424 0
vt 0.97744905948638912 0.734596073627472 0
# 112 texture coords

g Book_09
usemtl Books_mtl
s 1
f 25/91/1 28/96/2 27/95/3 26/92/4
f 2/9/5 4/10/6 8/11/7 6/12/8
f 3/17/9 1/18/10 5/19/11 7/20/12
f 1/5/13 3/44/14 10/45/15 9/46/16
f 3/14/17 7/15/18 11/23/19 10/26/20
f 7/1/21 5/2/22 12/3/23 11/4/24
f 28/94/25 30/100/26 29/99/27 27/93/28
f 6/67/29 8/42/30 14/43/31 13/68/32
f 8/13/33 4/16/34 15/30/35 14/31/36
f 4/47/37 2/48/38 16/49/39 15/50/40
f 26/90/41 32/104/42 31/103/43 25/89/44
f 9/24/45 10/25/46 18/34/47 17/35/48
f 10/64/49 11/51/50 19/52/51 18/65/52
f 11/72/53 12/53/54 20/54/55 19/73/56
f 30/98/57 33/105/58 34/106/59 29/97/60
f 13/29/61 14/38/62 22/55/63 21/56/64
f 14/66/65 15/57/66 23/58/67 22/74/68
f 15/75/69 16/59/70 24/60/71 23/76/72
f 32/102/73 35/109/74 36/110/75 31/101/76
f 22/79/77 19/80/78 20/77/79 34/108/80 33/107/81 21/78/82
f 23/81/83 18/82/84 19/83/85 22/84/86
f 23/86/87 24/87/88 36/112/89 35/111/90 17/88/91 18/85/92
f 2/7/93 6/8/94 28/96/95 25/91/96
f 5/21/97 1/6/98 26/92/99 27/95/100
f 28/94/101 6/40/102 13/41/103 30/100/104
f 12/62/105 5/61/106 27/93/107 29/99/108
f 26/90/109 1/63/110 9/69/111 32/104/112
f 16/71/113 2/70/114 25/89/115 31/103/116
f 13/28/117 21/36/118 33/105/119 30/98/120
f 20/37/121 12/27/122 29/97/123 34/106/124
f 9/32/125 17/33/126 35/109/127 32/102/128
f 24/39/129 16/22/130 31/101/131 36/110/132
#32 polygons

