# Aspose.3D Wavefront OBJ Exporter
# Copyright 2004-2021 Aspose Pty Ltd.
# File created: 07/01/2021 07:50:40

mtllib material.lib

#
# object BookOpen_02
#

v -0.39999389648437504 6.949901455470471E-05 2.867446832188278E-05
v 14.50001525878906248 6.735324759004325E-05 2.3017987802701628E-05
v 1.52587890625E-05 7.862053933671386E-05 -20.49997901916162136
v 14.50001525878906248 7.611714433952032E-05 -20.49998092651036432
v 14.30002593994140624 1.00006735324791229 1.566619759353698E-05
v 14.30002593994140624 1.00007325612155595 -20.499984697496366
v -0.199981689453125 1.00007397137729325 -20.499984697496334
v -14.61105346679687504 1.00007254086531838 -20.49997325340459752
v -14.61105346679687504 1.0000716447818021 2.7879847605969643E-05
v -0.20001220703125 1.00006902217792803 1.65304668347208E-05
v 0 7.104873552833907E-05 2.3882257132469108E-05
v -14.90000915527343744 7.25408652361326E-05 -20.49997138976735656
v -14.90000915527343744 7.653236239199016E-05 3.430711119857341E-05
v -0.40000915527343752 6.395779655522206E-05 -20.4999752044649952
v -0.19976806640625 0.8000689744941312 1.838466438042685E-05
v -0.19976806640625 0.80007314883319568 -20.49998470623864576
v -0.199981689453125 1.00007397137729325 -20.499984697496334
v -0.199981689453125 1.00007397137729325 -20.499984697496334
v -0.199981689453125 1.00007397137729325 -20.499984697496334
v -0.20001220703125 1.00006902217792803 1.65304668347208E-05
v -0.20001220703125 1.00006902217792803 1.65304668347208E-05
v -0.20001220703125 1.00006902217792803 1.65304668347208E-05
v 2.50125122070312496 0.47520232200518312 2.3859404595313988E-05
v 6.126251220703125 0.6693696975697656 2.3694926037530807E-05
v 9.75126647949218752 0.47520047426121392 2.3427269020935544E-05
v 9.75126647949218752 0.47520888053011176 -20.49998090574165136
v 6.1262664794921875 0.66937774621080616 -20.49998089725425744
v 2.50126647949218752 0.47521013222756864 -20.49997899839296168
v 2.30126953125 1.6373556276425516 -20.4999846696398684
v 5.92626953125 1.89018160306064192 -20.49998465858849176
v 9.55126953125 1.66764527760593032 -20.4999846683158644
v 2.301239013671875 1.63735044002460776 1.6550694448878003E-05
v 5.92625427246093744 1.89017629623341536 1.6401798441899288E-05
v 9.55126953125 1.66763973236017792 1.5172933429713975E-05
v 9.55126953125 1.66764527760593032 -20.4999846683158644
v 5.92626953125 1.89018160306064192 -20.49998465858849176
v 2.30126953125 1.6373556276425516 -20.4999846696398684
v 9.55126953125 1.66763973236017792 1.5172933429713975E-05
v 5.92625427246093744 1.89017629623341536 1.6401798441899288E-05
v 2.301239013671875 1.63735044002460776 1.6550694448878003E-05
v -11.0082855224609375 1.10175150834129298 -20.49997515630870384
v -7.405517578125 1.56906324826302888 -20.49997895057912344
v -3.80274963378906256 1.67003053628038512 -20.49998085351433728
v -11.00830078125 1.1017495393742207 2.4831100184188456E-05
v -7.40553283691406248 1.56906032562156208 2.2833165431461434E-05
v -3.80276489257812496 1.67002654075540376 1.88305525137091E-05
v -3.80274963378906256 1.67003053628038512 -20.49998085351433728
v -7.405517578125 1.56906324826302888 -20.49997895057912344
v -11.0082855224609375 1.10175150834129298 -20.49997515630870384
v -3.80276489257812496 1.67002654075540376 1.88305525137091E-05
v -7.40553283691406248 1.56906032562156208 2.2833165431461434E-05
v -11.00830078125 1.1017495393742207 2.4831100184188456E-05
v -11.27500915527343752 0.10175323486179 3.411805881163834E-05
v -7.64999389648437504 0.56906288862088048 3.2118796147144094E-05
v -4.024993896484375 0.67002815008028112 3.0975881912638296E-05
v -11.27500915527343752 0.10174888573675702 -20.49997138532294016
v -7.65000915527343752 0.56905806265860104 -20.49997136489620784
v -4.0250091552734375 0.67002296649016624 -20.49997326783152472
# 58 vertices

vn -1.0817615958558235E-07 -3.5139915508519692E-06 -1.00000000000015476
vn -9.10225921302299E-08 -3.597345606065616E-06 -0.9999999403955136
vn -2.8447527711250586E-07 -3.2993471659192863E-06 -0.99999994039550048
vn -3.244016113512771E-07 -3.3590989187981535E-06 -1.00000000000014788
vn -0.96069687604904176 0.27759948372841004 -2.103587265489537E-08
vn -0.96069681644439696 0.27759948372841004 -2.103587265489537E-08
vn -0.96069687604904176 0.27759948372841004 -2.103587265489537E-08
vn -0.96069687604904176 0.27759945392608764 -2.103587393165185E-08
vn -3.311417344775691E-07 6.072032028958674E-06 1.00000000000026645
vn -3.3114176289927855E-07 6.0720329384533756E-06 1.00000000000026645
vn -3.3114176289927855E-07 6.072032028958674E-06 1.00000000000026645
vn -3.3114176289927855E-07 6.072032483706025E-06 1.00000000000026645
vn 5.9564694510072513E-08 -4.560764700789477E-06 -1.0000000000002005
vn -1.0477413781018186E-07 -6.809106998906245E-06 -1.00000000000029887
vn 3.894285782735096E-09 -6.448822041482671E-06 -1.00000000000028288
vn -2.7755540088492126E-08 -3.919521825990202E-06 -0.99999994039552768
vn 0.98058265447616576 0.196106329560277 7.00487135241179E-08
vn 0.98058265447616576 0.196106329560277 7.00487135241179E-08
vn 0.98058265447616576 0.196106329560277 7.00487135241179E-08
vn 0.98058259487152096 0.196106329560277 7.00487135241179E-08
vn 4.1524526750436053E-07 1.0618607866552665E-05 1.0000000000004654
vn 4.1524529592606996E-07 1.0618607866552665E-05 1.0000000000004654
vn 4.1524526750436053E-07 1.0618607866552665E-05 1.0000000000004654
vn 4.152452390826511E-07 1.0618607866552665E-05 1.0000000000004654
vn -0.07842245697975159 0.99692022800445296 8.525872841058657E-08
vn -0.07842255383729935 0.99692022800445296 8.525860406560781E-08
vn 0.07784062623977661 0.99696582555769744 2.848086730899979E-07
vn 0.07784084230661392 0.99696582555769744 2.848089573070922E-07
vn -0.00415997067466378 0.99999135732649856 2.3271421312198726E-07
vn -0.00415990175679326 0.9999914169311432 2.327142868407961E-07
vn -0.15887849032878876 0.98729819059371952 2.4997429126649706E-08
vn -0.1588786393404007 0.98729807138442992 2.4997134362436668E-08
vn -0.0002606440393719822 -0.99999999999993056 -1.614895772883429E-06
vn -0.0002739455667324364 -0.99999994039528576 -1.6148962249662446E-06
vn -0.97020614147186272 -0.2422806620597654 -4.305343118127247E-07
vn -0.97020620107650752 -0.24228064715860424 -4.305343111465909E-07
vn 0.07794629037380219 -0.99695754051209472 1.9915550564242324E-07
vn 0.0779462531208992 -0.99695748090745008 1.9915547988524906E-07
vn 0.07804401963949203 -0.9969499111175632 1.8911926680242885E-07
vn 0.07804402709007263 -0.9969499111175632 1.8911925259157414E-07
vn -1.971244643073078E-07 -0.99999994039533952 -3.842444489254859E-07
vn -1.3537461995838385E-07 -0.99999999999998416 -3.8424442316831176E-07
vn 0.12032439559698104 -0.99273455142973696 -2.8906821980534403E-07
vn 0.12032432854175568 -0.9927347302436712 -2.890683129530558E-07
vn 0.97007620334625248 -0.2428008168935624 -3.528219110759956E-07
vn 0.97007620334625248 -0.2428008317947236 -3.5282191168661825E-07
vn -0.0002739455667324364 -0.99999994039528576 -1.6148962249662446E-06
vn -0.0002606440393719822 -0.99999999999993056 -1.614895772883429E-06
vn 1.3243856074041105E-06 -5.0042070325329036E-06 -1.00000000000021982
vn -6.036464128555963E-07 -6.507535836197675E-06 -1.00000000000028554
vn 1.3243854937172728E-06 -5.0042074872802544E-06 -1.00000000000021982
vn 6.59027136862278E-07 -4.486470807085752E-06 -1.00000000000019717
vn 6.337251079457928E-07 -4.466782520529122E-06 -1.00000000000019628
vn 6.337251079457928E-07 -4.466782520529122E-06 -1.00000000000019628
vn 6.59027136862278E-07 -4.486470807085752E-06 -1.00000000000019717
vn -9.10225921302299E-08 -3.597345606065616E-06 -0.9999999403955136
vn -1.0817615958558235E-07 -3.5139915508519692E-06 -1.00000000000015476
vn -4.280823020508251E-07 -3.5142623555639574E-06 -0.99999994039550992
vn -4.280823020508251E-07 -3.514262352899422E-06 -1.00000000000015476
vn -3.244016113512771E-07 -3.3590989187981535E-06 -1.00000000000014788
vn -2.8447527711250586E-07 -3.2993471659192863E-06 -0.99999994039550048
vn 8.666108328725386E-07 7.2762598575248916E-06 1.0000000000003193
vn 8.666107760291197E-07 7.2762603122722425E-06 1.0000000000003193
vn 8.666107760291197E-07 7.2762598575248916E-06 1.0000000000003193
vn 8.666108328725386E-07 7.2762603122722425E-06 1.0000000000003193
vn 5.822578259540023E-07 6.53906165104523E-06 1.00000000000028688
vn 5.822578259540023E-07 6.5390611962978795E-06 1.00000000000028688
vn 5.822578259540023E-07 6.53906165104523E-06 1.00000000000028688
vn 5.822578259540023E-07 6.539062105792581E-06 1.00000000000028688
vn -1.3698669363293448E-06 6.532109928292229E-06 1.00000000000028665
vn -1.369866822642507E-06 6.532109018797527E-06 1.00000000000028665
vn -1.3698667089556693E-06 6.532109473544878E-06 1.00000000000028665
vn -1.3698667089556693E-06 6.532109018797527E-06 1.00000000000028665
vn -1.3698669363293448E-06 6.532109473544878E-06 1.00000000000028665
vn 0.13920950889587402 0.99026298522948112 2.761099904269315E-07
vn 0.13920950889587402 0.99026292562483648 2.7610998776239626E-07
vn 0.10031867027282714 0.99495536088942368 2.817227146012513E-07
vn 0.10031866282224656 0.99495530128477888 2.8172269772586134E-07
vn 0.10031866282224656 0.99495530128477888 2.8172269772586134E-07
vn 0.10031867027282714 0.99495536088942368 2.817227146012513E-07
vn -0.00415990175679326 0.9999914169311432 2.327142868407961E-07
vn -0.00415997067466378 0.99999135732649856 2.3271421312198726E-07
vn -0.2468973696231842 0.96904164552689264 -1.2773558588641265E-07
vn -0.246897354722023 0.96904164552689264 -1.2773557167555794E-07
vn -0.1588786393404007 0.98729807138442992 2.4997134362436668E-08
vn -0.15887849032878876 0.98729819059371952 2.4997429126649706E-08
vn -0.09955725073814392 -0.99503177404401968 -4.163452399508216E-07
vn -0.09955725073814392 -0.99503177404401968 -4.163452399508216E-07
vn -0.07654260843992233 -0.99706637859342768 -4.186780406811863E-07
vn -0.07654260843992233 -0.99706637859342768 -4.186780406811863E-07
vn -0.07654260843992233 -0.99706637859342768 -4.186780406811863E-07
vn -0.07654260843992233 -0.99706637859342768 -4.186780406811863E-07
vn -1.3537461995838385E-07 -0.99999999999998416 -3.8424442316831176E-07
vn -1.971244643073078E-07 -0.99999994039533952 -3.842444489254859E-07
vn 0.1866203397512436 -0.98243212699889232 -2.3023375528286039E-07
vn 0.1866203248500824 -0.98243206739424752 -2.302337384074704E-07
vn 0.12032432854175568 -0.9927347302436712 -2.890683129530558E-07
vn 0.12032439559698104 -0.99273455142973696 -2.8906821980534403E-07
vn -2.533456608944107E-06 -8.012251619282651E-06 -1.00000000000035127
vn -6.036464128555963E-07 -6.507535836197675E-06 -1.00000000000028554
vn -2.533456608944107E-06 -8.012251619282651E-06 -1.00000000000035127
vn -1.3316712283995003E-06 -7.740899327535189E-06 -1.0000000000003395
vn -1.5316002190957079E-06 -7.786040278068285E-06 -1.0000000000003415
vn -1.0477413781018186E-07 -6.809106998906245E-06 -1.00000000000029887
vn -1.5316002190957079E-06 -7.786040278068285E-06 -1.0000000000003415
vn -1.3316712283995003E-06 -7.740899327535189E-06 -1.0000000000003395
vn 3.894285782735096E-09 -6.448822041482671E-06 -1.00000000000028288
vn -2.7755540088492126E-08 -3.919521825990202E-06 -0.99999994039552768
vn -1.8484111308225692E-07 -2.765951712779824E-06 -1.00000000000012212
vn -1.8484111308225692E-07 -2.7659519401534993E-06 -1.00000000000012212
vn 5.9564694510072513E-08 -4.560764700789477E-06 -1.0000000000002005
vn 2.2869269855618768E-07 7.793606364492334E-06 1.00000000000034194
vn 2.2869269855618768E-07 7.793607273987035E-06 1.00000000000034194
vn 2.2869269855618768E-07 7.793606364492334E-06 1.00000000000034194
vn 2.2869269855618768E-07 7.793606364492334E-06 1.00000000000034194
vn -6.699173695778882E-07 9.457546020774643E-06 1.00000000000041455
vn -6.699173695778882E-07 9.457546020774643E-06 1.00000000000041455
vn -6.699173695778882E-07 9.457546020774643E-06 1.00000000000041455
vn -6.699173127344693E-07 9.457546020774643E-06 1.00000000000041455
vn 2.8405988814483862E-06 1.1545855904904201E-05 1.00000000000050581
vn 2.8405988814483862E-06 1.1545855904904201E-05 1.00000000000050581
vn 2.8405988814483862E-06 1.1545854995409499E-05 1.00000000000050581
vn 2.8405988814483862E-06 1.1545855904904201E-05 1.00000000000050581
vn 2.8405988814483862E-06 1.1545855904904201E-05 1.00000000000050581
vn -0.02821114100515842 0.99960207939147808 5.937444191861374E-08
vn -0.02821114100515842 0.99960207939147808 5.937444191861374E-08
vn -0.07852088660001755 0.99691253900527872 4.1009173390449405E-08
vn -0.07852097600698471 0.99691247940063408 4.100913630900038E-08
vn -0.07852097600698471 0.99691247940063408 4.100913630900038E-08
vn -0.07852088660001755 0.99691253900527872 4.1009173390449405E-08
vn -0.07842255383729935 0.99692022800445296 8.525860406560781E-08
vn -0.07842245697975159 0.99692022800445296 8.525872841058657E-08
vn 0.18282248079776764 0.98314589262006944 4.186639686043492E-07
vn 0.18282246589660644 0.98314583301542464 4.186639376291268E-07
vn 0.07784084230661392 0.99696582555769744 2.848089573070922E-07
vn 0.07784062623977661 0.99696582555769744 2.848086730899979E-07
vn -0.1817384660243988 -0.98334681987764272 3.9239202831442554E-07
vn -0.1817384660243988 -0.98334687948228752 3.923920257609126E-07
vn -0.07737701386213303 -0.99700188636781232 3.0960848718120104E-07
vn -0.07737699151039124 -0.99700194597245712 3.096084845166658E-07
vn -0.07737699151039124 -0.99700194597245712 3.096084845166658E-07
vn -0.07737701386213303 -0.99700188636781232 3.0960848718120104E-07
vn 0.0779462531208992 -0.99695748090745008 1.9915547988524906E-07
vn 0.07794629037380219 -0.99695754051209472 1.9915550564242324E-07
vn 0.02803766913712024 -0.99960690736771632 2.0334976524871706E-07
vn 0.02803766913712024 -0.99960684776307152 2.0334976780223002E-07
vn 0.07804402709007263 -0.9969499111175632 1.8911925259157414E-07
vn 0.07804401963949203 -0.9969499111175632 1.8911926680242885E-07
# 148 vertex normals

vt 0.92858386039733888 0.91330730915069584 0
vt 0.92858386039733888 0.9046167731285096 0
vt 0.99158930778503424 0.9046167731285096 0
vt 0.99158930778503424 0.91330730915069584 0
vt 0.84477603435516352 0.93076372146606448 0
vt 0.84477603435516352 0.92207324504852288 0
vt 0.9338535070419312 0.92207324504852288 0
vt 0.9338535070419312 0.93076372146606448 0
vt 0.90264117717742912 0.78040969371795648 0
vt 0.90264117717742912 0.77171921730041504 0
vt 0.96564674377441408 0.77171921730041504 0
vt 0.96564674377441408 0.78040969371795648 0
vt 0.84477603435516352 0.92641848325729376 0
vt 0.90264117717742912 0.77606445550918576 0
vt 0.96564674377441408 0.77606445550918576 0
vt 0.92858386039733888 0.90896201133728032 0
vt 0.99158930778503424 0.90896201133728032 0
vt 0.9338535070419312 0.92641848325729376 0
vt 0.84477603435516352 0.92641848325729376 0
vt 0.90264117717742912 0.77606445550918576 0
vt 0.96564674377441408 0.77606445550918576 0
vt 0.92858386039733888 0.90896201133728032 0
vt 0.9338535070419312 0.92641848325729376 0
vt 0.99158930778503424 0.90896201133728032 0
vt 0.82442939281463616 0.59015607833862304 0
vt 0.74316728115081792 0.59015607833862304 0
vt 0.74316728115081792 0.47378990054130552 0
vt 0.82442939281463616 0.47378990054130552 0
vt 0.82768833637237552 0.59025382995605472 0
vt 0.82768833637237552 0.4738875925540924 0
vt 0.90895056724548336 0.4738875925540924 0
vt 0.90895056724548336 0.59025382995605472 0
vt 0.9758379459381104 0.90896201133728032 0
vt 0.96008658409118656 0.90896201133728032 0
vt 0.94433522224426272 0.90896201133728032 0
vt 0.76348280906677248 0.59015607833862304 0
vt 0.78379833698272704 0.59015607833862304 0
vt 0.8041138648986816 0.59015607833862304 0
vt 0.76348280906677248 0.47378990054130552 0
vt 0.78379833698272704 0.47378990054130552 0
vt 0.8041138648986816 0.47378990054130552 0
vt 0.91839253902435296 0.77606445550918576 0
vt 0.9341439604759216 0.77606445550918576 0
vt 0.94989538192749024 0.77606445550918576 0
vt 0.9429175853729248 0.90896201133728032 0
vt 0.95866894721984864 0.90896201133728032 0
vt 0.97442030906677248 0.90896201133728032 0
vt 0.84617549180984496 0.59025382995605472 0
vt 0.86649107933044432 0.59025382995605472 0
vt 0.88680660724639888 0.59025382995605472 0
vt 0.91981017589569088 0.77606445550918576 0
vt 0.93556159734725952 0.77606445550918576 0
vt 0.95131295919418336 0.77606445550918576 0
vt 0.88680660724639888 0.4738875925540924 0
vt 0.86649107933044432 0.4738875925540924 0
vt 0.84617549180984496 0.4738875925540924 0
vt 0.96564674377441408 0.77519541978836064 0
vt 0.92858386039733888 0.90809297561645504 0
vt 0.96564674377441408 0.77693349123001104 0
vt 0.92858386039733888 0.90983104705810544 0
vt 0.77592003345489504 0.5977309346199036 0
vt 0.84972834587097168 0.5977309346199036 0
vt 0.84972834587097168 0.70208024978637696 0
vt 0.77592003345489504 0.70208024978637696 0
vt 0.23219476640224456 0.65537595748901368 0
vt 0.30600288510322572 0.65537595748901368 0
vt 0.30600282549858092 0.75972557067871088 0
vt 0.23219476640224456 0.75972557067871088 0
vt 0.80547118186950688 0.71445697546005248 0
vt 0.79529035091400144 0.71445697546005248 0
vt 0.79529035091400144 0.8188048601150512 0
vt 0.80547118186950688 0.8188048601150512 0
vt 0.79936265945434576 0.71445697546005248 0
vt 0.79936265945434576 0.8188048601150512 0
vt 0.80139887332916256 0.8188048601150512 0
vt 0.80139887332916256 0.71445697546005248 0
vt 0.82442939281463616 0.59015607833862304 0
vt 0.82768833637237552 0.59025382995605472 0
vt 0.92858386039733888 0.90896201133728032 0
vt 0.96564674377441408 0.77606445550918576 0
vt 0.96564674377441408 0.77606445550918576 0
vt 0.82768833637237552 0.4738875925540924 0
vt 0.92364305257797248 0.77171921730041504 0
vt 0.94464486837387088 0.77171921730041504 0
vt 0.8251255750656128 0.5977309346199036 0
vt 0.80052280426025392 0.5977309346199036 0
vt 0.97058749198913568 0.90896201133728032 0
vt 0.94958567619323728 0.90896201133728032 0
vt 0.77025467157363888 0.47378990054130552 0
vt 0.7973420023918152 0.47378990054130552 0
vt 0.8251255750656128 0.70208024978637696 0
vt 0.80052280426025392 0.70208024978637696 0
vt 0.97058749198913568 0.9046167731285096 0
vt 0.94958567619323728 0.9046167731285096 0
vt 0.7973420023918152 0.59015607833862304 0
vt 0.77025467157363888 0.59015607833862304 0
vt 0.94464486837387088 0.77606445550918576 0
vt 0.92364305257797248 0.77606445550918576 0
vt 0.94464486837387088 0.78040969371795648 0
vt 0.92364305257797248 0.78040969371795648 0
vt 0.2814001739025116 0.65537595748901368 0
vt 0.25679746270179748 0.65537595748901368 0
vt 0.97058749198913568 0.91330730915069584 0
vt 0.94958567619323728 0.91330730915069584 0
vt 0.25679746270179748 0.75972557067871088 0
vt 0.2814001441001892 0.75972557067871088 0
vt 0.94958567619323728 0.90896201133728032 0
vt 0.97058749198913568 0.90896201133728032 0
vt 0.85477572679519648 0.4738875925540924 0
vt 0.8818631768226624 0.4738875925540924 0
vt 0.8818631768226624 0.59025382995605472 0
vt 0.85477572679519648 0.59025382995605472 0
vt 0.92364305257797248 0.77606445550918576 0
vt 0.94464486837387088 0.77606445550918576 0
vt 0.95477831363677984 0.78040969371795648 0
vt 0.9390268921852112 0.78040969371795648 0
vt 0.92327547073364256 0.78040969371795648 0
vt 0.2932709753513336 0.65537595748901368 0
vt 0.27481895685195924 0.65537595748901368 0
vt 0.25636690855026244 0.65537595748901368 0
vt 0.9709550142288208 0.91330730915069584 0
vt 0.95520365238189696 0.91330730915069584 0
vt 0.93945229053497312 0.91330730915069584 0
vt 0.25636690855026244 0.75972557067871088 0
vt 0.27481892704963684 0.75972557067871088 0
vt 0.29327094554901124 0.75972557067871088 0
vt 0.93945229053497312 0.90896201133728032 0
vt 0.95520365238189696 0.90896201133728032 0
vt 0.9709550142288208 0.90896201133728032 0
vt 0.84170609712600704 0.4738875925540924 0
vt 0.8620216250419616 0.4738875925540924 0
vt 0.88233721256256096 0.4738875925540924 0
vt 0.88233721256256096 0.59025382995605472 0
vt 0.8620216250419616 0.59025382995605472 0
vt 0.84170603752136224 0.59025382995605472 0
vt 0.92327547073364256 0.77606445550918576 0
vt 0.9390268921852112 0.77606445550918576 0
vt 0.95477831363677984 0.77606445550918576 0
vt 0.9758379459381104 0.90896201133728032 0
vt 0.96008658409118656 0.90896201133728032 0
vt 0.94433522224426272 0.90896201133728032 0
vt 0.76348280906677248 0.47378990054130552 0
vt 0.78379833698272704 0.47378990054130552 0
vt 0.8041138648986816 0.47378990054130552 0
vt 0.8041138648986816 0.59015607833862304 0
vt 0.78379833698272704 0.59015607833862304 0
vt 0.76348280906677248 0.59015607833862304 0
vt 0.94989538192749024 0.77606445550918576 0
vt 0.9341439604759216 0.77606445550918576 0
vt 0.91839253902435296 0.77606445550918576 0
vt 0.91839253902435296 0.77171921730041504 0
vt 0.9341439604759216 0.77171921730041504 0
vt 0.94989538192749024 0.77171921730041504 0
vt 0.83127629756927488 0.5977309346199036 0
vt 0.81282418966293328 0.5977309346199036 0
vt 0.79437208175659184 0.5977309346199036 0
vt 0.83127629756927488 0.70208024978637696 0
vt 0.81282418966293328 0.70208024978637696 0
vt 0.79437208175659184 0.70208024978637696 0
vt 0.9758379459381104 0.9046167731285096 0
vt 0.96008658409118656 0.9046167731285096 0
vt 0.94433522224426272 0.9046167731285096 0
# 162 texture coords

g BookOpen_02
usemtl BooksA_mtl
s 1
f 27/122/1 30/128/2 31/129/3 26/121/4
f 9/19/5 8/23/6 12/8/7 13/5/8
f 23/115/9 24/116/10 39/137/11 40/138/12
f 41/139/13 42/140/14 57/161/15 56/160/16
f 2/6/17 4/7/18 6/18/19 5/13/20
f 51/149/21 54/152/22 55/153/23 50/148/24
f 48/146/25 45/143/26 46/144/27 47/145/28
f 33/131/29 36/134/30 37/135/31 32/130/32
f 15/73/33 16/74/34 3/71/35 11/70/36
f 57/158/37 54/155/38 53/154/39 56/157/40
f 27/125/41 24/119/42 23/118/43 28/126/44
f 1/69/45 14/72/46 16/75/47 15/76/48
f 3/1/49 16/60/50 19/79/51 29/127/52 28/123/53
f 28/123/54 29/127/55 30/128/56 27/122/57
f 6/17/58 4/4/59 26/121/60 31/129/61
f 25/117/62 2/9/63 5/14/64 38/136/65
f 24/116/66 25/117/67 38/136/68 39/137/69
f 21/81/70 15/59/71 11/12/72 23/115/73 40/138/74
f 5/31/75 6/32/76 35/133/77 34/132/78
f 34/132/79 35/133/80 36/134/81 33/131/82
f 18/78/83 22/82/84 32/130/85 37/135/86
f 4/68/87 2/65/88 25/120/89 26/124/90
f 26/124/91 25/120/92 24/119/93 27/125/94
f 11/66/95 3/67/96 28/126/97 23/118/98
f 7/22/99 16/58/100 14/2/101 58/162/102 43/141/103
f 42/140/104 43/141/105 58/162/106 57/161/107
f 56/160/108 12/3/109 8/24/110 41/139/111
f 9/20/112 13/10/113 53/151/114 52/150/115
f 51/149/116 52/150/117 53/151/118 54/152/119
f 1/11/120 15/57/121 20/80/122 50/148/123 55/153/124
f 8/26/125 9/27/126 44/142/127 49/147/128
f 49/147/129 44/142/130 45/143/131 48/146/132
f 10/28/133 17/77/134 47/145/135 46/144/136
f 14/64/137 1/61/138 55/156/139 58/159/140
f 58/159/141 55/156/142 54/155/143 57/158/144
f 13/62/145 12/63/146 56/157/147 53/154/148
#36 polygons

