# Aspose.3D Wavefront OBJ Exporter
# Copyright 2004-2021 Aspose Pty Ltd.
# File created: 07/01/2021 07:49:17

mtllib material.lib

#
# object BookOpen_01
#

v 1.52587890625E-05 3.8266180898745354E-05 2.395383657050646E-05
v -0.40000915527343752 3.379583253954892E-05 2.39776778692136E-05
v 14.50001525878906248 3.492832082910181E-05 2.3089569075360794E-05
v -14.90000915527343744 3.904104107525917E-05 2.8656644532346522E-05
v 1.52587890625E-05 4.369221741496214E-05 -20.49997711181451264
v -0.40000915527343752 3.44534974747766E-05 -20.49997711181491768
v 14.50001525878906248 4.0354357307540265E-05 -20.49997711181466184
v -14.90000915527343744 3.981791525444318E-05 -20.49997138976878472
v 14.30002593994140624 1.0000350475304407 1.573777887140695E-05
v -0.19996643066406248 1.00004393063632646 -20.49998469749764496
v 14.30002593994140624 1.00004095040408769 -20.4999846974977764
v -0.19999694824218752 1.00003951989261308 -20.49998469749784032
v -14.70002746582031248 1.00004035435713967 -20.4999732534060044
v -14.70002746582031248 1.00003945827364093 2.747989590394803E-05
v -0.20002746582031248 1.00003576278614025 1.660204807090434E-05
v -0.19999694824218752 1.00003778934406262 1.6602046340498595E-05
v -0.19976806640625 0.80003660917201504 1.845624383670201E-05
v -0.19975280761718752 0.80004120074351264 -20.4999827988914092
v 2.24751281738281248 0.2233335375775392 2.387919964654572E-05
v 2.24751281738281248 0.22333896361405168 -20.49997710205396832
v 2.0475311279296875 1.36348766289798392 -20.49998468161101784
v 2.0475006103515625 1.36348152160572256 1.6564647495133447E-05
v -2.64750671386718752 0.24352675676240168 2.417633021041609E-05
v -2.64750671386718752 0.24352741442734512 -20.49997710117150264
v -2.447509765625 1.3634838482005516 -20.4999808669139156
v -2.44752502441406248 1.3634804487220216 1.8739918668275787E-05
v 10.41584777832031248 0.12235099077122608 2.3365501268014877E-05
v 6.33168029785156248 0.18232744932071428 2.3624869638634263E-05
v 10.41584777832031248 0.12235641680771634 -20.49997710646805512
v 6.33168029785156248 0.1823328753572158 -20.49997710384640112
v 10.215850830078125 1.1817141771309534 1.602948266539818E-05
v 6.131683349609375 1.44456672668385712 1.6342753571326075E-05
v 6.1316986083984375 1.4445726295575296 -20.49998467806668144
v 10.21586608886718752 1.18172019921390216 -20.49998468955632448
v -10.61585998535156248 1.10093337498710598 -20.49997515634446544
v -6.53167724609375 1.36912363968911552 -20.49997895931876
v -10.61585998535156248 1.10093164443865254 2.3925405979744226E-05
v -6.53169250488281248 1.36912107467556 2.1845874993673838E-05
v -6.73167419433593744 0.26372456550483064 2.6332480878252082E-05
v -10.81584167480468752 0.10215675830720926 2.74866649982457E-05
v -6.73167419433593744 0.26372534237890772 -20.4999713782427264
v -10.81584167480468752 0.10215753518150386 -20.49997520000234272
# 42 vertices

vn -3.11398792973705E-07 -6.01913581710356E-06 -1.00000000000026423
vn 8.244274454227707E-07 -6.937001053364256E-06 -1.0000000000003042
vn 4.498672012687166E-07 -6.637467613535009E-06 -1.00000000000029132
vn 3.9626809211767977E-07 -6.594604492482503E-06 -1.00000000000028954
vn 8.244274454227707E-07 -6.9370015081116065E-06 -1.0000000000003042
vn -0.00027659279294312 -0.99999999999999296 -1.8624046327353483E-07
vn -0.0002775339235085994 -0.99999994039534816 -1.8624083009122216E-07
vn -0.97020626068115232 -0.24228012561796288 -4.2039572456520347E-07
vn -0.97020632028579712 -0.24228014051912404 -4.203957536530467E-07
vn -0.0564020648598671 -0.99840813875198336 -3.3480274774788654E-08
vn -0.05640209466218948 -0.99840813875198336 -3.3480273886610235E-08
vn -0.10770931094884872 -0.99418240785598736 -3.18817057198828E-08
vn -0.10770931094884872 -0.99418240785598736 -3.18817057198828E-08
vn -0.98058414459228512 0.19609874486923204 8.037169180186154E-09
vn -0.98058414459228512 0.19609875977039328 8.037169790808818E-09
vn -0.98058414459228512 0.19609875977039328 8.037169790808818E-09
vn -0.98058408498764032 0.19609875977039328 8.037169790808818E-09
vn -0.01236167270690202 -0.99992352724074256 -2.6469348735069786E-07
vn -0.0123616736382246 -0.99992352724074256 -2.646935015615526E-07
vn -0.02231011912226677 -0.99975109100340752 -2.646923162874515E-07
vn -0.02231011912226677 -0.99975109100340752 -2.646923162874515E-07
vn 3.2114471082422824E-07 6.351901283840888E-06 1.00000000000027888
vn 3.2114471082422824E-07 6.351901283840888E-06 1.00000000000027888
vn 3.2114471082422824E-07 6.3519008290935375E-06 1.00000000000027888
vn 3.2114471082422824E-07 6.351900831758073E-06 0.99999994039563408
vn -1.215072302329645E-06 -5.0198003191948E-06 -1.00000000000022071
vn -1.4483473478321685E-06 -5.100363814625197E-06 -1.00000000000022404
vn -3.11398792973705E-07 -6.01913581710356E-06 -1.00000000000026423
vn -1.4483473478321685E-06 -5.100363362542382E-06 -0.9999999403955792
vn -1.1805635722339503E-06 -5.007882755370119E-06 -1.00000000000022004
vn 0.98058271408081056 0.19610600173473144 5.418944570845241E-08
vn 0.98058277368545536 0.1961060166358926 5.4189446374586225E-08
vn 0.98058265447616576 0.19610600173473144 5.418943860302505E-08
vn 0.98058271408081056 0.19610600173473144 5.418944215573873E-08
vn 1.966222100691084E-07 3.7873449609815424E-06 0.99999994039552192
vn 1.9662222427996312E-07 3.787344958317007E-06 1.00000000000016653
vn 1.9662222427996312E-07 3.787344958317007E-06 1.00000000000016653
vn 1.966222100691084E-07 3.787344958317007E-06 1.00000000000016653
vn -0.03208975866436958 0.9994850754737816 1.1341352956772965E-07
vn -0.03208969905972481 0.9994850754737816 1.1341358641114851E-07
vn -0.04511957988142967 0.9989815950393656 7.215102282298602E-08
vn -0.04511956125497818 0.9989815950393656 7.215101394120182E-08
vn 0.02220788598060608 0.99975335597990704 3.0525201366593535E-07
vn 0.02220784500241279 0.99975335597990704 3.052519852442259E-07
vn 0.05433559417724609 0.9985227584838736 3.228263615318028E-07
vn 0.0543355867266655 0.9985227584838736 3.2282633311009334E-07
vn 0.97007185220718384 -0.24281811714173836 3.3005071012337517E-07
vn 0.97007179260253904 -0.24281810224057712 3.300507107617534E-07
vn -0.0002775339235085994 -0.99999994039534816 -1.8624083009122216E-07
vn -0.00027659279294312 -0.99999999999999296 -1.8624046327353483E-07
vn -2.68414197535094E-07 -6.932320793628932E-06 -1.0000000000003042
vn -2.707238309085369E-07 -7.0527542630483E-06 -1.00000000000030953
vn -1.3096730810957524E-07 -6.452852924665464E-06 -0.9999999403956384
vn -9.803324729773522E-08 -6.422329825062079E-06 -1.00000000000028199
vn 0.09886609017848968 -0.99510073661803168 -2.6298910127398045E-07
vn 0.09886610507965088 -0.99510079622267648 -2.6298911814937043E-07
vn 0.04447929188609123 -0.99901026487349408 -2.642152904241968E-07
vn 0.04447929561138153 -0.99901026487349408 -2.642152904241968E-07
vn -7.648200721632747E-07 6.715009767566116E-06 1.00000000000029465
vn -7.648200721632747E-07 6.715010222313467E-06 1.00000000000029465
vn -7.648200721632747E-07 6.715009770230651E-06 0.99999994039564992
vn -7.648200721632747E-07 6.715009312818765E-06 1.00000000000029465
vn -7.648200721632747E-07 6.715010222313467E-06 1.00000000000029465
vn -0.15963661670684814 0.98717576265334944 5.847590311969242E-08
vn -0.15963661670684814 0.98717582225799408 5.847590578422768E-08
vn -0.08996498584747314 0.99594497680663456 1.6540161040801138E-07
vn -0.0899648442864418 0.99594497680663456 1.654018093599774E-07
vn 0.03226291015744209 -0.9994793534278864 -3.799634717971401E-08
vn 0.03226291760802269 -0.9994794130325312 -3.7996349400160057E-08
vn 0.01729591377079486 -0.99985045194625808 -3.649729796162404E-08
vn 0.01729592122137546 -0.99985033273696848 -3.6497294408910363E-08
vn -3.08144393557086E-07 -4.192792239399168E-06 -1.00000000000018429
vn -3.0791343874625454E-07 -1.987500418243471E-06 -1.00000000000008792
vn -1.7716489253416512E-07 -2.4135532139535343E-06 -0.99999994039546176
vn -4.5696097572545114E-07 -4.363358875769663E-06 -1.00000000000019184
vn 1.2150550219303113E-06 5.826058280034019E-06 0.99999994039561104
vn 1.2150550219303113E-06 5.826057822622133E-06 1.00000000000025579
vn 1.215055135617149E-06 5.8260587321168344E-06 1.00000000000025579
vn 1.215055135617149E-06 5.8260587321168344E-06 1.00000000000025579
vn 1.2150550219303113E-06 5.8260587321168344E-06 1.00000000000025579
vn 0.15963642299175262 0.98717588186262608 3.506092357552504E-07
vn 0.15963640809059144 0.98717594146727088 3.5060923819774104E-07
vn 0.08076369762420654 0.99673330783843024 2.4934082099026256E-07
vn 0.08076351881027222 0.99673330783843024 2.493405794057324E-07
vn 0.04447929561138153 -0.99901026487349408 -2.642152904241968E-07
vn 0.04447929188609123 -0.99901026487349408 -2.642152904241968E-07
vn -0.0123616736382246 -0.99992352724074256 -2.646935015615526E-07
vn -0.01236167270690202 -0.99992352724074256 -2.6469348735069786E-07
vn -0.02993541024625301 -0.99955183267592336 -2.646395528271839E-07
vn -0.02993541024625301 -0.99955183267592336 -2.646395528271839E-07
vn -0.02231011912226677 -0.99975109100340752 -2.646923162874515E-07
vn -0.02231011912226677 -0.99975109100340752 -2.646923162874515E-07
vn 2.8465649393183412E-08 6.0806413084701916E-06 0.99999994039562208
vn 2.846565116954025E-08 6.080641305805656E-06 1.00000000000026689
vn 2.846565116954025E-08 6.080641305805656E-06 1.00000000000026689
vn 2.846565294589709E-08 6.080641760553007E-06 1.00000000000026689
vn 3.373649803961598E-07 7.197733632891001E-06 0.99999994039567104
vn 3.373649803961598E-07 7.197733630226466E-06 1.00000000000031574
vn 3.373649519744504E-07 7.197733632891001E-06 0.99999994039567104
vn 3.373649803961598E-07 7.197733630226466E-06 1.00000000000031574
vn -0.0899648442864418 0.99594497680663456 1.654018093599774E-07
vn -0.08996498584747314 0.99594497680663456 1.6540161040801138E-07
vn 0.02220784500241279 0.99975335597990704 3.052519852442259E-07
vn 0.02220788598060608 0.99975335597990704 3.0525201366593535E-07
vn 0.04443982988595962 0.99901211261748032 3.071688589040278E-07
vn 0.04443982988595962 0.99901211261748032 3.071688589040278E-07
vn 0.0543355867266655 0.9985227584838736 3.2282633311009334E-07
vn 0.05433559417724609 0.9985227584838736 3.228263615318028E-07
vn -2.7776096089837665E-07 -7.419701723909711E-06 -1.00000000000032551
vn -2.7776096089837665E-07 -7.41970126916236E-06 -1.00000000000032551
vn -2.707238309085369E-07 -7.0527542630483E-06 -1.00000000000030953
vn -2.68414197535094E-07 -6.932320793628932E-06 -1.0000000000003042
vn 3.9626809211767977E-07 -6.594604492482503E-06 -1.00000000000028954
vn 4.498672012687166E-07 -6.637467613535009E-06 -1.00000000000029132
vn -9.803324729773522E-08 -6.422329825062079E-06 -1.00000000000028199
vn -1.3096730810957524E-07 -6.452852924665464E-06 -0.9999999403956384
vn 6.579390969818633E-07 4.3408302372593965E-06 1.00000000000019095
vn 6.579390969818633E-07 4.3408302372593965E-06 1.00000000000019095
vn 6.579390969818633E-07 4.3408302372593965E-06 1.00000000000019095
vn 6.579390969818633E-07 4.340829782512046E-06 1.00000000000019095
vn 5.220710477260582E-07 2.2659867864316396E-06 1.00000000000010014
vn 5.220710477260582E-07 2.2659867864316396E-06 1.00000000000010014
vn 5.220710477260582E-07 2.2659867864316396E-06 1.00000000000010014
vn 5.220710477260582E-07 2.2659867864316396E-06 1.00000000000010014
vn 0.08076351881027222 0.99673330783843024 2.493405794057324E-07
vn 0.08076369762420654 0.99673330783843024 2.4934082099026256E-07
vn -0.03208969905972481 0.9994850754737816 1.1341358641114851E-07
vn -0.03208975866436958 0.9994850754737816 1.1341352956772965E-07
vn -0.02469580993056297 0.99969500303268256 6.407015185061482E-08
vn -0.02469581179320812 0.99969500303268256 6.407015185061482E-08
vn -0.04511956125497818 0.9989815950393656 7.215101394120182E-08
vn -0.04511957988142967 0.9989815950393656 7.215102282298602E-08
vn 0.02499549835920334 -0.99968749284744192 -3.800426007227742E-08
vn 0.02499549835920334 -0.99968755245208672 -3.800426229272347E-08
vn 0.03226291760802269 -0.9994794130325312 -3.7996349400160057E-08
vn 0.03226291015744209 -0.9994793534278864 -3.799634717971401E-08
vn -0.05640209466218948 -0.99840813875198336 -3.3480273886610235E-08
vn -0.0564020648598671 -0.99840813875198336 -3.3480274774788654E-08
vn 0.01729592122137546 -0.99985033273696848 -3.6497294408910363E-08
vn 0.01729591377079486 -0.99985045194625808 -3.649729796162404E-08
vn -3.0791343874625454E-07 -1.987500418243471E-06 -1.00000000000008792
vn -6.801818130952597E-07 -7.744395771336343E-07 -1.00000000000003508
vn -6.801818130952597E-07 -7.744396339770532E-07 -1.00000000000003508
vn -1.7716489253416512E-07 -2.4135532139535343E-06 -0.99999994039546176
vn -4.5696097572545114E-07 -4.363358875769663E-06 -1.00000000000019184
vn -1.215072302329645E-06 -5.0198003191948E-06 -1.00000000000022071
vn -1.1805635722339503E-06 -5.007882755370119E-06 -1.00000000000022004
vn -3.08144393557086E-07 -4.192792239399168E-06 -1.00000000000018429
# 148 vertex normals

vt 0.92858386039733888 0.91330730915069584 0
vt 0.92858386039733888 0.9046167731285096 0
vt 0.99158930778503424 0.9046167731285096 0
vt 0.99158930778503424 0.91330730915069584 0
vt 0.28629195690155028 0.41564533114433288 0
vt 0.29647251963615416 0.41564533114433288 0
vt 0.29647251963615416 0.51999431848526 0
vt 0.28629195690155028 0.5199942588806152 0
vt 0.65979421138763424 0.1197962686419487 0
vt 0.73360240459442144 0.1197962686419487 0
vt 0.73360240459442144 0.22414557635784148 0
vt 0.65979421138763424 0.22414557635784148 0
vt 0.84477603435516352 0.93076372146606448 0
vt 0.84477603435516352 0.92207324504852288 0
vt 0.9338535070419312 0.92207324504852288 0
vt 0.9338535070419312 0.93076372146606448 0
vt 0.66332638263702392 0.6789463758468628 0
vt 0.73713445663452144 0.6789463758468628 0
vt 0.73713445663452144 0.78329598903656 0
vt 0.66332638263702392 0.78329586982727056 0
vt 0.90264117717742912 0.78040969371795648 0
vt 0.90264117717742912 0.77171921730041504 0
vt 0.96564674377441408 0.77171921730041504 0
vt 0.96564674377441408 0.78040969371795648 0
vt 0.84477603435516352 0.92641848325729376 0
vt 0.90264117717742912 0.77606445550918576 0
vt 0.96564674377441408 0.77606445550918576 0
vt 0.92858386039733888 0.90896201133728032 0
vt 0.99158930778503424 0.90896201133728032 0
vt 0.9338535070419312 0.92641848325729376 0
vt 0.84477603435516352 0.92641848325729376 0
vt 0.90264117717742912 0.77606445550918576 0
vt 0.96564674377441408 0.77606445550918576 0
vt 0.92858386039733888 0.90896201133728032 0
vt 0.9338535070419312 0.92641848325729376 0
vt 0.99158930778503424 0.90896201133728032 0
vt 0.82442939281463616 0.59015607833862304 0
vt 0.74316728115081792 0.59015607833862304 0
vt 0.74316728115081792 0.47378990054130552 0
vt 0.82442939281463616 0.47378990054130552 0
vt 0.82768833637237552 0.59025382995605472 0
vt 0.82768833637237552 0.4738875925540924 0
vt 0.90895056724548336 0.4738875925540924 0
vt 0.90895056724548336 0.59025382995605472 0
vt 0.9758379459381104 0.90896201133728032 0
vt 0.96008658409118656 0.90896201133728032 0
vt 0.94433522224426272 0.90896201133728032 0
vt 0.76348280906677248 0.59015607833862304 0
vt 0.78379833698272704 0.59015607833862304 0
vt 0.8041138648986816 0.59015607833862304 0
vt 0.76348280906677248 0.47378990054130552 0
vt 0.78379833698272704 0.47378990054130552 0
vt 0.8041138648986816 0.47378990054130552 0
vt 0.91839253902435296 0.77606445550918576 0
vt 0.9341439604759216 0.77606445550918576 0
vt 0.94989538192749024 0.77606445550918576 0
vt 0.9429175853729248 0.90896201133728032 0
vt 0.95866894721984864 0.90896201133728032 0
vt 0.97442030906677248 0.90896201133728032 0
vt 0.84617549180984496 0.59025382995605472 0
vt 0.86649107933044432 0.59025382995605472 0
vt 0.88680660724639888 0.59025382995605472 0
vt 0.91981017589569088 0.77606445550918576 0
vt 0.93556159734725952 0.77606445550918576 0
vt 0.95131295919418336 0.77606445550918576 0
vt 0.88680660724639888 0.4738875925540924 0
vt 0.86649107933044432 0.4738875925540924 0
vt 0.84617549180984496 0.4738875925540924 0
vt 0.29240030050277708 0.41564533114433288 0
vt 0.96564674377441408 0.77519541978836064 0
vt 0.92858386039733888 0.90809297561645504 0
vt 0.29240030050277708 0.5199942588806152 0
vt 0.29036420583724976 0.41564533114433288 0
vt 0.96564674377441408 0.77693349123001104 0
vt 0.92858386039733888 0.90983104705810544 0
vt 0.29036420583724976 0.5199942588806152 0
vt 0.72569417953491216 0.6789463758468628 0
vt 0.95588088035583504 0.78040969371795648 0
vt 0.93834972381591792 0.91330730915069584 0
vt 0.72569417953491216 0.78329598903656 0
vt 0.93834972381591792 0.90896201133728032 0
vt 0.84028398990631104 0.59025382995605472 0
vt 0.95588088035583504 0.77606445550918576 0
vt 0.84028398990631104 0.4738875925540924 0
vt 0.67123448848724368 0.1197962686419487 0
vt 0.95588088035583504 0.77171921730041504 0
vt 0.93834972381591792 0.9046167731285096 0
vt 0.67123448848724368 0.22414557635784148 0
vt 0.93834972381591792 0.90896201133728032 0
vt 0.81183373928070064 0.59015607833862304 0
vt 0.81183373928070064 0.47378990054130552 0
vt 0.95588088035583504 0.77606445550918576 0
vt 0.68411564826965336 0.6789463758468628 0
vt 0.70490491390228272 0.6789463758468628 0
vt 0.92038774490356448 0.78040969371795648 0
vt 0.93813431262969968 0.78040969371795648 0
vt 0.97384279966354368 0.91330730915069584 0
vt 0.95609623193740848 0.91330730915069584 0
vt 0.68411564826965336 0.78329592943191536 0
vt 0.70490491390228272 0.78329592943191536 0
vt 0.92038774490356448 0.77606445550918576 0
vt 0.93813431262969968 0.77606445550918576 0
vt 0.8860617280006408 0.4738875925540924 0
vt 0.8631728291511536 0.4738875925540924 0
vt 0.95609623193740848 0.90896201133728032 0
vt 0.97384279966354368 0.90896201133728032 0
vt 0.8631728291511536 0.59025382995605472 0
vt 0.8860617280006408 0.59025382995605472 0
vt 0.97384279966354368 0.90896201133728032 0
vt 0.95609623193740848 0.90896201133728032 0
vt 0.76605612039566048 0.59015607833862304 0
vt 0.78894490003585808 0.59015607833862304 0
vt 0.76605612039566048 0.47378990054130552 0
vt 0.78894490003585808 0.47378990054130552 0
vt 0.92038774490356448 0.77606445550918576 0
vt 0.93813431262969968 0.77606445550918576 0
vt 0.69202381372451784 0.1197962686419487 0
vt 0.7128130793571472 0.1197962686419487 0
vt 0.93813431262969968 0.77171921730041504 0
vt 0.92038774490356448 0.77171921730041504 0
vt 0.95609623193740848 0.9046167731285096 0
vt 0.97384279966354368 0.9046167731285096 0
vt 0.69202381372451784 0.22414557635784148 0
vt 0.7128130793571472 0.22414557635784148 0
# 124 texture coords

g BookOpen_01
usemtl BooksA_mtl
s 1
f 18/75/1 10/28/2 21/81/3 20/79/4 5/1/5
f 17/73/6 18/76/7 5/8/8 1/5/9
f 23/85/10 24/88/11 6/12/12 2/9/13
f 14/31/14 13/35/15 8/16/16 4/13/17
f 28/94/18 30/100/19 29/99/20 27/93/21
f 31/101/22 32/102/23 28/96/24 27/95/25
f 25/89/26 12/34/27 18/71/28 6/2/29 24/87/30
f 3/14/31 7/15/32 11/30/33 9/25/34
f 39/119/35 38/116/36 37/115/37 40/120/38
f 38/114/39 36/112/40 35/111/41 37/113/42
f 33/107/43 32/104/44 31/103/45 34/108/46
f 2/6/47 6/7/48 18/72/49 17/69/50
f 34/106/51 29/97/52 30/98/53 33/105/54
f 1/18/55 5/19/56 20/80/57 19/77/58
f 16/27/59 17/74/60 1/24/61 19/78/62 22/83/63
f 10/41/64 16/42/65 22/84/66 21/82/67
f 40/118/68 42/124/69 41/123/70 39/117/71
f 41/121/72 42/122/73 35/109/74 36/110/75
f 2/23/76 17/70/77 15/33/78 26/92/79 23/86/80
f 15/40/81 12/37/82 25/90/83 26/91/84
f 19/77/85 20/80/86 30/100/87 28/94/88
f 7/20/89 3/17/90 27/93/91 29/99/92
f 32/102/93 22/83/94 19/78/95 28/96/96
f 27/95/97 3/21/98 9/26/99 31/101/100
f 21/82/101 22/84/102 32/104/103 33/107/104
f 9/43/105 11/44/106 34/108/107 31/103/108
f 11/29/109 7/4/110 29/97/111 34/106/112
f 20/79/113 21/81/114 33/105/115 30/98/116
f 23/86/117 26/92/118 38/116/119 39/119/120
f 14/32/121 4/22/122 40/120/123 37/115/124
f 26/91/125 25/90/126 36/112/127 38/114/128
f 13/38/129 14/39/130 37/113/131 35/111/132
f 4/10/133 8/11/134 42/124/135 40/118/136
f 24/88/137 23/85/138 39/117/139 41/123/140
f 42/122/141 8/3/142 13/36/143 35/109/144
f 36/110/145 25/89/146 24/87/147 41/121/148
#36 polygons

