# Aspose.3D Wavefront OBJ Exporter
# Copyright 2004-2021 Aspose Pty Ltd.
# File created: 07/01/2021 12:16:42

mtllib material.lib

#
# object Book_08
#

v 0.19821834564208984 4.6897232243805346E-14 -1.0728836059570302E-06
v 0.19821834564208984 -1.7484555447921932E-07 3.999999999999996
v 17.19821929931640624 -7.816205373967557E-14 1.788139343261717E-06
v 17.19821929931640624 -1.748456795385053E-07 4.00000286102294477
v 0.19822025299072264 24.49999999999975128 6.196928471868807E-06
v 0.19822025299072264 24.49999982515416976 4.00000679297491501
v 17.19822311401367188 24.49999999999964832 8.581114262884429E-06
v 17.19822311401367188 24.49999982515404536 4.00000965399786423
v 0.2982177734375 -4.371113850123286E-09 0.09999942779541006
v 17.19821929931640624 -4.371233698605687E-09 0.10000216960906972
v 17.19822311401367188 24.49999999562851368 0.10000848574683114
v 0.2982196807861328 24.49999999562863096 0.10000574393317148
v 0.2982196807861328 24.49999982952531496 3.900006649923768
v 17.19822311401367188 24.49999982952520128 3.90000927252813808
v 17.19821929931640624 -1.7047452400195335E-07 3.90000247955321872
v 0.2982177734375 -1.7047440936427454E-07 3.89999985694884848
v 16.89417839050292976 24.19596862355882648 0.09999416734245158
v 0.29823875427246092 24.19816588918394372 0.09999142562483746
v 0.29823780059814452 24.19816572308059576 3.89999304687117168
v 16.89418029785156256 24.19596845745549272 3.8999954309609168
v 16.89417839050292976 0.304061719174476 3.89998961824091456
v 16.89417839050292976 0.304061885277834 0.0999877585760015
v 0.29823493957519532 0.305831738705851 3.89998675729533552
v 0.29823493957519532 0.30583190480924548 0.09998406316539544
v -1.049041748046875E-05 -1.165636960384081E-07 2.66666650772094464
v -1.049041748046875E-05 -5.8281832386793305E-08 1.33333289623260364
v -8.58306884765625E-06 24.49999994171789904 1.33333956999823376
v -8.58306884765625E-06 24.49999988343603976 2.66667306227728496
v 0.0999908447265625 24.49999994026087432 1.36667239470526504
v 0.0999908447265625 24.49999988489310352 2.63333928389593728
v 0.09998893737792968 -1.1510663029741457E-07 2.63333272933959696
v 0.09998893737792968 -5.973886686296534E-08 1.366665959358214
v 0.10000896453857422 24.19816577844838788 2.63332568084334096
v 0.10000991821289062 24.1981658338161658 1.36665855323408912
v 0.100006103515625 0.30583179407365092 2.63331915284892568
v 0.100006103515625 0.3058318494414508 1.36665154840251568
# 36 vertices

vn -0.99727833271026608 5.7525589944318334E-08 0.0737282857298877
vn -0.99727833271026608 5.752558218663495E-08 0.07372830063104889
vn -0.99727833271026608 9.858201334422834E-08 -0.07372828572988088
vn -0.99727833271026608 9.858202175416775E-08 -0.07372831553220327
vn -1.6829544335905666E-07 -2.7726425622098816E-07 0.99999999999998912
vn -1.6829542914820195E-07 -2.772642393455982E-07 0.99999994039534432
vn -1.6829544335905666E-07 -2.7726425622098816E-07 0.99999999999998912
vn -1.6829544335905666E-07 -2.7726424201013344E-07 0.99999999999998912
vn 1.5427082189489738E-07 2.869956194917478E-07 -0.99999994039534384
vn 1.542708361057521E-07 2.8699562215628305E-07 -0.99999999999998864
vn 1.5427082189489738E-07 2.8699562215628305E-07 -0.99999999999998864
vn 1.5427082189489738E-07 2.8699562215628305E-07 -0.99999999999998864
vn 0 -0.9999999403953544 -4.3711385844247275E-08
vn 0 -0.9999999403953544 -4.3711385844247275E-08
vn 0 -0.9999999999999992 -4.3711388508782534E-08
vn 0 -0.9999999999999992 -4.3711388508782534E-08
vn 1 -1.557019260189917E-07 -6.805947371214897E-15
vn 1 -1.5570191180813695E-07 -6.805946762409966E-15
vn 1 -1.557019260189917E-07 -6.805947371214897E-15
vn 0.9999999403953552 -1.5570191180813695E-07 -6.805946762409966E-15
vn 0 0.9999999403953544 4.3711385844247275E-08
vn 0 0.9999999403953544 4.3711385844247275E-08
vn 0 0.9999999999999992 4.3711388508782534E-08
vn 0 0.9999999999999992 4.3711388508782534E-08
vn 0 0.9999999999999992 4.3711388508782534E-08
vn 0 0.9999999999999992 4.3711388508782534E-08
vn 0 0.9999999403953544 4.3711385844247275E-08
vn 0 0.9999999999999992 4.3711388508782534E-08
vn 0 0.9999999999999992 4.3711388508782534E-08
vn 0 0.9999999999999992 4.3711388508782534E-08
vn 0 0.9999999403953544 4.3711385844247275E-08
vn 0 0.9999999999999992 4.3711388508782534E-08
vn 1 -1.557019260189917E-07 -6.805947371214897E-15
vn 1 -1.557019260189917E-07 -6.805947371214897E-15
vn 1 -1.557019260189917E-07 -6.805947371214897E-15
vn 1 -1.557019260189917E-07 -6.805947371214897E-15
vn 0 -0.9999999999999992 -4.3711388508782534E-08
vn 0 -0.9999999999999992 -4.3711388508782534E-08
vn 0 -0.9999999999999992 -4.3711388508782534E-08
vn 0 -0.9999999403953544 -4.3711385844247275E-08
vn 0 -0.9999999999999992 -4.3711388508782534E-08
vn 0 -0.9999999999999992 -4.3711388508782534E-08
vn 0 -0.9999999999999992 -4.3711388508782534E-08
vn 0 -0.9999999999999992 -4.3711388508782534E-08
vn -1.8960434999826248E-07 4.872654864818138E-05 1.00000000000213118
vn -1.8960433578740776E-07 4.872654865084591E-05 0.99999994039748624
vn -1.896043642091172E-07 4.872654864818138E-05 1.00000000000213118
vn -1.8960434999826248E-07 4.872654864818138E-05 1.00000000000213118
vn -4.72457249998115E-05 -2.6295150967747816E-07 0.9999999999999896
vn -4.72457249998115E-05 -2.6295149546662344E-07 0.9999999999999896
vn -4.72457249998115E-05 -2.6295149546662344E-07 0.9999999999999896
vn -4.724572863779031E-05 -2.6295149546662344E-07 0.9999999999999896
vn -1.6680236569754925E-07 -4.718209054765943E-05 0.99999999999793872
vn -1.6680236569754925E-07 -4.7182094185638235E-05 0.99999999999793872
vn -1.6680235148669453E-07 -4.718209054765943E-05 0.99999999999793872
vn -1.6680235148669453E-07 -4.718209054499489E-05 0.99999994039329392
vn 1 6.161214694830714E-05 3.764530094053762E-07
vn 1 6.161214694830714E-05 3.7645303782708566E-07
vn 1 6.161213967234952E-05 3.764530094050645E-07
vn 1 6.161213967234952E-05 3.764530094050645E-07
vn 1.5243810480569664E-07 4.5221718373733566E-05 -0.99999999999802448
vn 1.5243809059484192E-07 4.522171837106903E-05 -0.99999994039337968
vn 1.5243810480569664E-07 4.5221718373733566E-05 -0.99999999999802448
vn 1.5243809059484192E-07 4.5221718373733566E-05 -0.99999999999802448
vn 4.3913179979426786E-05 2.6048660850541694E-07 -0.99999999999998976
vn 4.3913179979426786E-05 2.6048660850541694E-07 -0.99999999999998976
vn 4.3913179979426786E-05 2.604865942945622E-07 -0.99999999999998976
vn 4.3913179979426786E-05 2.6048660850541694E-07 -0.99999999999998976
vn 1.6146280756856868E-07 -4.248588704558465E-05 -0.99999994039721344
vn 1.6146280756856868E-07 -4.248589068089892E-05 -1.00000000000185829
vn 1.6146280756856868E-07 -4.248588704292011E-05 -1.00000000000185829
vn 1.614628217794234E-07 -4.248589068089892E-05 -1.00000000000185829
vn 1 -5.6129320000763935E-05 -2.4534905154077226E-12
vn 1 -5.6129320000763935E-05 -2.4534905154077226E-12
vn 1 -5.612932363874274E-05 -2.4534906780380485E-12
vn 0.9999999403953552 -5.6129320000763935E-05 -2.4534905154077226E-12
vn 0.00013135181507095695 0.9999999999999992 4.3689411866054684E-08
vn 0.00013135181507095695 0.9999999999999992 4.3689411866054684E-08
vn 0.00013135181507095695 0.9999999999999992 4.3689411866054684E-08
vn 0.00013135181507095695 0.9999999999999992 4.3689411866054684E-08
vn 0.00013135181507095695 0.9999999999999992 4.3689411866054684E-08
vn 0.00013135181507095695 0.9999999999999992 4.3689411866054684E-08
vn 0.9999999403953552 -3.9916141191259543E-08 -2.50966822403295E-07
vn 1 -3.9916141191259543E-08 -2.50966822403295E-07
vn 1 -3.9916144743972005E-08 -2.509668508250045E-07
vn 1 -3.9916141191259543E-08 -2.50966822403295E-07
vn -0.00010581118112895638 -0.9999999999999992 -4.3711388508782534E-08
vn -0.00010581118112895638 -0.9999999999999992 -4.3711388508782534E-08
vn -0.00010581116657704115 -0.9999999999999992 -4.3711388508782534E-08
vn -0.00010581116657704115 -0.9999999999999992 -4.3711388508782534E-08
vn -0.00010581117385299876 -0.9999999999999992 -4.3711388508782534E-08
vn -0.00010581117385299876 -0.9999999999999992 -4.3711388508782534E-08
vn -0.98912829160690304 3.688708247184813E-08 0.14705526828766046
vn -0.98912823200225824 3.688707891913445E-08 0.14705526828766046
vn -0.99727833271026608 5.752558218663495E-08 0.07372830063104889
vn -0.99727833271026608 5.7525589944318334E-08 0.0737282857298877
vn -0.98912829160690304 1.1877647201896657E-07 -0.14705529808997602
vn -0.98912823200225824 1.187764642474054E-07 -0.14705528318881486
vn -0.99727833271026608 9.858202175416775E-08 -0.07372831553220327
vn -0.99727833271026608 9.858201334422834E-08 -0.07372828572988088
vn 0 0.9999999999999992 4.3711388508782534E-08
vn 0 0.9999999999999992 4.3711388508782534E-08
vn 0 0.9999999999999992 4.3711388508782534E-08
vn 0 0.9999999999999992 4.3711388508782534E-08
vn 0 0.9999999999999992 4.3711388508782534E-08
vn 0 0.9999999403953544 4.3711385844247275E-08
vn 0 0.9999999999999992 4.3711388508782534E-08
vn 0 0.9999999999999992 4.3711388508782534E-08
vn 0 -0.9999999999999992 -4.3711388508782534E-08
vn 0 -0.9999999403953544 -4.3711385844247275E-08
vn 0 -0.9999999999999992 -4.3711388508782534E-08
vn 0 -0.9999999403953544 -4.3711385844247275E-08
vn 0 -0.9999999999999992 -4.3711388508782534E-08
vn 0 -0.9999999999999992 -4.3711388508782534E-08
vn 0 -0.9999999999999992 -4.3711388508782534E-08
vn 0 -0.9999999999999992 -4.3711388508782534E-08
vn 0.98797488212585456 6.627660964500515E-05 -0.15461447834678882
vn 0.98797488212585456 6.627660964500515E-05 -0.15461447834678882
vn 0.98797488212585456 6.627660964500515E-05 -0.15461447834678882
vn 0.98797488212585456 6.627660964500515E-05 -0.15461447834678882
vn 0.98797482252120976 5.523097301518565E-05 0.15461452305558362
vn 0.98797488212585456 5.523097301518565E-05 0.15461452305558362
vn 0.9879749417304992 5.5230976652526076E-05 0.15461453795674484
vn 0.98797482252120976 5.5230969377872974E-05 0.15461450815442246
vn 0.98797488212585456 -4.792885643445377E-05 0.1546145081499132
vn 0.98797482252120976 -4.7928852795836585E-05 0.15461449324875198
vn 0.9879749417304992 -4.792886371107752E-05 0.15461452305107438
vn 0.98797488212585456 -4.792886007243258E-05 0.1546145081499132
vn 0.9879749417304992 -6.218554430756362E-05 -0.15461447835240408
vn 0.9879749417304992 -6.218554430756362E-05 -0.15461447835240408
vn 0.98797488212585456 -6.2185544308202E-05 -0.15461446345124288
vn 0.98797488212585456 -6.2185544308202E-05 -0.15461446345124288
# 132 vertex normals

vt 0.90026402473449712 0.29267731308937072 0
vt 0.98698562383651728 0.29267731308937072 0
vt 0.9864755272865296 0.2931871712207794 0
vt 0.90026402473449712 0.2931871712207794 0
vt 0.75115561485290528 0.97869056463241584 0
vt 0.03990552946925163 0.5396437644958496 0
vt 0.06026639044284821 0.5396437644958496 0
vt 0.06026639044284821 0.66435486078262328 0
vt 0.56681656837463376 0.39948198199272152 0
vt 0.65335023403167728 0.39948198199272152 0
vt 0.65335023403167728 0.5241921544075012 0
vt 0.56681656837463376 0.5241921544075012 0
vt 0.6983206272125244 0.93638348579406736 0
vt 0.63927853107452392 0.81142604351043696 0
vt 0.63927853107452392 0.93640744686126704 0
vt 0.69832050800323488 0.81140208244323728 0
vt 0.4743691682815552 0.40188869833946232 0
vt 0.56090295314788816 0.40188869833946232 0
vt 0.56090295314788816 0.52659916877746584 0
vt 0.4743691682815552 0.52659916877746584 0
vt 0.03990552946925163 0.66435486078262328 0
vt 0.78005421161651616 0.1602490246295929 0
vt 0.77954542636871344 0.16075816750526428 0
vt 0.98698520660400384 0.28728657960891724 0
vt 0.98698520660400384 0.28779643774032592 0
vt 0.12972825765609742 0.89484941959381104 0
vt 0.63876891136169432 0.93640744686126704 0
vt 0.56506997346878048 0.94835871458053584 0
vt 0.65128147602081296 0.94835871458053584 0
vt 0.63876891136169432 0.81142604351043696 0
vt 0.12612903118133544 0.89060461521148688 0
vt 0.10674414783716202 0.89060461521148688 0
vt 0.99226975440979008 0.8042999505996704 0
vt 0.69883012771606448 0.81140208244323728 0
vt 0.698830246925354 0.93638348579406736 0
vt 0.14911307394504548 0.89484941959381104 0
vt 0.14911307394504548 0.8964532613754272 0
vt 0.64973050355911256 0.94990980625152592 0
vt 0.56507009267807008 0.94996255636215216 0
vt 0.10674413293600082 0.88903748989105232 0
vt 0.12612903118133544 0.88903748989105232 0
vt 0.9060582518577576 0.8042999505996704 0
vt 0.12972824275493622 0.8964532613754272 0
vt 0.83787727355957024 0.97869068384170528 0
vt 0.83787727355957024 0.97920030355453488 0
vt 0.75166571140289312 0.97920018434524544 0
vt 0.75115621089935296 0.97330003976821904 0
vt 0.83787781000137328 0.97330003976821904 0
vt 0.83736771345138544 0.97380965948104864 0
vt 0.75115621089935296 0.97380965948104864 0
vt 0.98729157447814944 0.18492610752582552 0
vt 0.98574048280715936 0.1864769607782364 0
vt 0.65128022432327272 0.95707350969314576 0
vt 0.65128010511398312 0.95864045619964592 0
vt 0.90760922431945808 0.80274885892868048 0
vt 0.99226963520050048 0.80273306369781488 0
vt 0.98771131038665776 0.13753296434879302 0
vt 0.98616021871566768 0.13908381760120392 0
vt 0.88694989681243904 0.71338421106338504 0
vt 0.8885538578033448 0.71338987350463864 0
vt 0.75968980789184576 0.1602490246295929 0
vt 0.76019895076751712 0.16075816750526428 0
vt 0.80912977457046512 0.17693527042865754 0
vt 0.90026360750198368 0.28728657960891724 0
vt 0.90077364444732672 0.28779643774032592 0
vt 0.86231017112731936 0.18492610752582552 0
vt 0.86386126279830928 0.1864769607782364 0
vt 0.86272990703582768 0.13753293454647064 0
vt 0.80862063169479376 0.17744429409503936 0
vt 0.78876751661300656 0.17693527042865754 0
vt 0.78927654027938848 0.17744429409503936 0
vt 0.56506872177124024 0.95707350969314576 0
vt 0.56661969423294064 0.95862460136413568 0
vt 0.8642809987068176 0.13908378779888154 0
vt 0.88665264844894416 0.79959517717361456 0
vt 0.8882086873054504 0.79804956912994384 0
vt 0.7653905153274536 0.9444482922554016 0
vt 0.7653905153274536 0.92793619632720944 0
vt 0.83750438690185552 0.92793619632720944 0
vt 0.83750438690185552 0.9444482922554016 0
vt 0.76784253120422368 0.84604167938232416 0
vt 0.76784253120422368 0.829529881477356 0
vt 0.87165820598602288 0.829529881477356 0
vt 0.87165820598602288 0.84604167938232416 0
vt 0.7653905153274536 0.91843432188034064 0
vt 0.7653905153274536 0.90192222595214848 0
vt 0.83750438690185552 0.90192222595214848 0
vt 0.83750438690185552 0.91843432188034064 0
vt 0.79555493593215936 0.17693527042865754 0
vt 0.80234235525131232 0.17693527042865754 0
vt 0.05347943678498268 0.5396437644958496 0
vt 0.04669248312711716 0.5396437644958496 0
vt 0.76647794246673584 0.1602490246295929 0
vt 0.77326607704162592 0.1602490246295929 0
vt 0.04669248312711716 0.66435486078262328 0
vt 0.05347943678498268 0.66435486078262328 0
vt 0.1196674033999443 0.89060461521148688 0
vt 0.11320577561855316 0.89060461521148688 0
vt 0.76664775609970096 0.16075816750526428 0
vt 0.7730966210365296 0.16075816750526428 0
vt 0.13618986308574676 0.89484941959381104 0
vt 0.14265146851539612 0.89484941959381104 0
vt 0.79572457075119024 0.17744429409503936 0
vt 0.802172601222992 0.17744429409503936 0
vt 0.11320576816797256 0.88903748989105232 0
vt 0.1196673959493637 0.88903748989105232 0
vt 0.7653905153274536 0.93344020843505856 0
vt 0.7653905153274536 0.93894428014755248 0
vt 0.83750438690185552 0.9074262380599976 0
vt 0.83750438690185552 0.91293030977249152 0
vt 0.13618984818458558 0.8964532613754272 0
vt 0.14265146851539612 0.8964532613754272 0
# 112 texture coords

g Book_08
usemtl Books_mtl
s 1
f 25/91/1 28/96/2 27/95/3 26/92/4
f 2/9/5 4/10/6 8/11/7 6/12/8
f 3/17/9 1/18/10 5/19/11 7/20/12
f 1/5/13 3/44/14 10/45/15 9/46/16
f 3/14/17 7/15/18 11/27/19 10/30/20
f 7/1/21 5/2/22 12/3/23 11/4/24
f 28/94/25 30/100/26 29/99/27 27/93/28
f 6/64/29 8/24/30 14/25/31 13/65/32
f 8/13/33 4/16/34 15/34/35 14/35/36
f 4/47/37 2/48/38 16/49/39 15/50/40
f 26/90/41 32/104/42 31/103/43 25/89/44
f 9/28/45 10/29/46 22/38/47 24/39/48
f 10/66/49 11/51/50 17/52/51 22/67/52
f 11/72/53 12/53/54 18/54/55 17/73/56
f 30/98/57 33/105/58 34/106/59 29/97/60
f 13/33/61 14/42/62 20/55/63 19/56/64
f 14/68/65 15/57/66 21/58/67 20/74/68
f 15/75/69 16/59/70 23/60/71 21/76/72
f 32/102/73 36/112/74 35/111/75 31/101/76
f 20/79/77 17/80/78 18/77/79 34/108/80 33/107/81 19/78/82
f 21/81/83 22/82/84 17/83/85 20/84/86
f 21/86/87 23/87/88 35/109/89 36/110/90 24/88/91 22/85/92
f 2/7/93 6/8/94 28/96/95 25/91/96
f 5/21/97 1/6/98 26/92/99 27/95/100
f 28/94/101 6/22/102 13/23/103 30/100/104
f 12/62/105 5/61/106 27/93/107 29/99/108
f 26/90/109 1/63/110 9/69/111 32/104/112
f 16/71/113 2/70/114 25/89/115 31/103/116
f 13/32/117 19/40/118 33/105/119 30/98/120
f 18/41/121 12/31/122 29/97/123 34/106/124
f 9/36/125 24/37/126 36/112/127 32/102/128
f 23/43/129 16/26/130 31/101/131 35/111/132
#32 polygons

