# File produced by Open Asset Import Library (http://www.assimp.sf.net)
# (assimp v5.0.1588609223)

mtllib result.mtl

# 42 vertex positions
v  -0.19975281 0.80003941 -20.499983
v  -0.19996643 1.0000421 -20.499985
v  2.0475311 1.3634858 -20.499985
v  2.2475128 0.22333717 -20.499977
v  1.5258789e-05 4.1900053e-05 -20.499977
v  -0.19976807 0.80003661 1.8386303e-05
v  1.5258789e-05 3.8266182e-05 2.3953833e-05
v  -2.6475067 0.24352676 2.4155041e-05
v  -2.6475067 0.24352562 -20.499977
v  -0.40000916 3.2661334e-05 -20.499977
v  -0.40000916 3.3795834e-05 2.3977675e-05
v  -14.700027 1.0000395 2.7392469e-05
v  -14.700027 1.0000385 -20.499973
v  -14.900009 3.8025752e-05 -20.499971
v  -14.900009 3.9041042e-05 2.8656641e-05
v  6.3316803 0.18232745 2.3608931e-05
v  6.3316803 0.18233109 -20.499977
v  10.415848 0.12235463 -20.499977
v  10.415848 0.12235099 2.3354805e-05
v  10.215851 1.1817142 1.5926174e-05
v  6.1316833 1.4445667 1.6216465e-05
v  -2.4475098 1.363482 -20.499981
v  -0.19999695 1.0000377 -20.499985
v  14.500015 3.4928322e-05 2.3089566e-05
v  14.500015 3.8562193e-05 -20.499977
v  14.300026 1.0000391 -20.499985
v  14.300026 1.000035 1.5650354e-05
v  -6.7316742 0.26372457 2.6309426e-05
v  -6.5316925 1.3691211 2.1726182e-05
v  -10.61586 1.1009316 2.382916e-05
v  -10.815842 0.10215676 2.7477734e-05
v  -6.5316772 1.3691218 -20.499979
v  -10.61586 1.1009315 -20.499975
v  6.1316986 1.4445708 -20.499985
v  10.215866 1.1817183 -20.499985
v  2.2475128 0.22333354 2.3859675e-05
v  -0.19999695 1.0000378 1.6514621e-05
v  2.0475006 1.3634815 1.6445449e-05
v  -10.815842 0.10215575 -20.499975
v  -6.7316742 0.26372355 -20.499971
v  -0.20002747 1.0000358 1.6514623e-05
v  -2.447525 1.3634804 1.862072e-05

# 0 UV coordinates

# 93 vertex normals
vn -3.1139879e-07 -6.1065584e-06 -1
vn 8.2442745e-07 -7.0244237e-06 -1
vn 4.498672e-07 -6.7248902e-06 -1
vn 3.9626809e-07 -6.6820271e-06 -1
vn 8.2442745e-07 -7.0244241e-06 -1
vn -0.00027659279 -1 -9.8817686e-08
vn -0.00027753392 -0.99999994 -9.8818063e-08
vn -0.97020626 -0.24228013 -3.9921491e-07
vn -0.97020632 -0.24228014 -3.9921494e-07
vn -0.056402065 -0.99840814 5.3803337e-08
vn -0.056402095 -0.99840814 5.3803337e-08
vn -0.10770931 -0.99418241 5.503248e-08
vn -0.98058414 0.19609874 -9.1063281e-09
vn -0.98058414 0.19609876 -9.1063281e-09
vn -0.98058408 0.19609876 -9.1063281e-09
vn -0.012361673 -0.99992353 -1.772774e-07
vn -0.012361674 -0.99992353 -1.7727741e-07
vn -0.022310119 -0.99975109 -1.772913e-07
vn 3.2114471e-07 6.4393239e-06 1
vn 3.2114471e-07 6.4393234e-06 1
vn 3.2114471e-07 6.4393234e-06 0.99999994
vn -1.2150723e-06 -5.1072229e-06 -1
vn -1.4483473e-06 -5.1877864e-06 -1
vn -1.4483473e-06 -5.187786e-06 -0.99999994
vn -1.1805636e-06 -5.0953054e-06 -1
vn 0.98058271 0.196106 3.7045314e-08
vn 0.98058277 0.19610602 3.7045314e-08
vn 0.98058265 0.196106 3.7045307e-08
vn 0.98058271 0.196106 3.7045311e-08
vn 1.9662221e-07 3.8747676e-06 0.99999994
vn 1.9662222e-07 3.8747676e-06 1
vn 1.9662221e-07 3.8747676e-06 1
vn -0.032089759 0.99948508 2.6035767e-08
vn -0.032089699 0.99948508 2.6035824e-08
vn -0.04511958 0.9989816 -1.5182723e-08
vn -0.045119561 0.9989816 -1.5182732e-08
vn 0.022207886 0.99975336 2.178508e-07
vn 0.022207845 0.99975336 2.1785077e-07
vn 0.054335594 0.99852276 2.3553272e-07
vn 0.054335587 0.99852276 2.355327e-07
vn 0.97007185 -0.24281812 3.5127854e-07
vn 0.97007179 -0.2428181 3.5127854e-07
vn -2.684142e-07 -7.0197434e-06 -1
vn -2.7072383e-07 -7.1401769e-06 -1
vn -1.3096731e-07 -6.5402755e-06 -0.99999994
vn -9.8033247e-08 -6.5097524e-06 -1
vn 0.09886609 -0.99510074 -1.7599463e-07
vn 0.098866105 -0.9951008 -1.7599464e-07
vn 0.044479292 -0.99901026 -1.7687904e-07
vn 0.044479296 -0.99901026 -1.7687904e-07
vn -7.6482007e-07 6.8024324e-06 1
vn -7.6482007e-07 6.8024328e-06 1
vn -7.6482007e-07 6.8024324e-06 0.99999994
vn -7.6482007e-07 6.8024319e-06 1
vn -0.15963662 0.98717576 -2.7825743e-08
vn -0.15963662 0.98717582 -2.7825747e-08
vn -0.089964986 0.99594498 7.8333336e-08
vn -0.089964844 0.99594498 7.8333535e-08
vn 0.03226291 -0.99947935 4.9380912e-08
vn 0.032262918 -0.99947941 4.9380915e-08
vn 0.017295914 -0.99985045 5.0912405e-08
vn 0.017295921 -0.99985033 5.0912398e-08
vn -3.0814439e-07 -4.2802149e-06 -1
vn -3.0791344e-07 -2.0749233e-06 -1
vn -1.7716489e-07 -2.5009761e-06 -0.99999994
vn -4.5696098e-07 -4.4507815e-06 -1
vn 1.215055e-06 5.9134809e-06 0.99999994
vn 1.215055e-06 5.9134804e-06 1
vn 1.2150551e-06 5.9134813e-06 1
vn 1.215055e-06 5.9134813e-06 1
vn 0.15963642 0.98717588 2.6430757e-07
vn 0.15963641 0.98717594 2.6430757e-07
vn 0.080763698 0.99673331 1.6220363e-07
vn 0.080763519 0.99673331 1.6220338e-07
vn -0.02993541 -0.99955183 -1.7725596e-07
vn 2.8465649e-08 6.1680639e-06 0.99999994
vn 2.8465651e-08 6.1680639e-06 1
vn 2.8465653e-08 6.1680644e-06 1
vn 3.3736498e-07 7.2851562e-06 0.99999994
vn 3.3736498e-07 7.2851562e-06 1
vn 3.3736495e-07 7.2851562e-06 0.99999994
vn 0.04443983 0.99901211 2.1983244e-07
vn -2.7776096e-07 -7.5071243e-06 -1
vn -2.7776096e-07 -7.5071239e-06 -1
vn 6.579391e-07 4.4282529e-06 1
vn 6.579391e-07 4.4282524e-06 1
vn 5.2207105e-07 2.3534096e-06 1
vn -0.02469581 0.999695 -2.332596e-08
vn -0.024695812 0.999695 -2.332596e-08
vn 0.024995498 -0.99968749 4.9391197e-08
vn 0.024995498 -0.99968755 4.93912e-08
vn -6.8018181e-07 -8.6186236e-07 -1
vn -6.8018181e-07 -8.6186242e-07 -1

# Mesh 'BookOpen_01' with 36 faces
g BookOpen_01
usemtl BooksA_mtl
f  1//1 2//2 3//3 4//4 5//5
f  6//6 1//7 5//8 7//9
f  8//10 9//11 10//12 11//12
f  12//13 13//14 14//14 15//15
f  16//16 17//17 18//18 19//18
f  20//19 21//19 16//20 19//21
f  22//22 23//23 1//1 10//24 9//25
f  24//26 25//27 26//28 27//29
f  28//30 29//31 30//31 31//32
f  29//33 32//34 33//35 30//36
f  34//37 21//38 20//39 35//40
f  11//41 10//42 1//7 6//6
f  35//43 18//44 17//45 34//46
f  7//47 5//48 4//49 36//50
f  37//51 6//52 7//53 36//54 38//52
f  2//55 37//56 38//57 3//58
f  31//59 39//60 40//61 28//62
f  40//63 39//64 33//65 32//66
f  11//67 6//68 41//69 42//69 8//70
f  41//71 23//72 22//73 42//74
f  36//50 4//49 17//17 16//16
f  25//75 24//75 19//18 18//18
f  21//76 38//77 36//77 16//78
f  19//79 24//80 27//81 20//80
f  3//58 38//57 21//38 34//37
f  27//82 26//82 35//40 20//39
f  26//83 25//84 18//44 35//43
f  4//4 3//3 34//46 17//45
f  8//85 42//85 29//85 28//86
f  12//87 15//87 31//87 30//87
f  42//74 22//73 32//34 29//33
f  13//88 12//89 30//36 33//35
f  15//90 14//91 39//60 31//59
f  9//11 8//10 28//62 40//61
f  39//64 14//92 13//93 33//65
f  32//66 22//22 9//25 40//63

