# WaveFront *.obj file (generated by Autodesk ATF)

mtllib 9dd90396-e8eb-48c7-b72c-6a82289f8e2c.mtl

g Body1

v -500.000000 500.000000 0.000000
v 500.000000 500.000000 0.000000
v 500.000000 500.000000 75.000000
v -500.000000 500.000000 75.000000
v -500.000000 -500.000000 0.000000
v -500.000000 -500.000000 75.000000
v 500.000000 -500.000000 0.000000
v 500.000000 -500.000000 75.000000
v -600.000000 -600.000000 0.000000
v 600.000000 -600.000000 0.000000
v 600.000000 -600.000000 75.000000
v -600.000000 -600.000000 75.000000
v -600.000000 600.000000 0.000000
v -600.000000 600.000000 75.000000
v 600.000000 600.000000 0.000000
v 600.000000 600.000000 75.000000
vt 0.000000 0.000000 0.000000
vt 100.000000 0.000000 0.000000
vt 0.000000 7.500000 0.000000
vt 100.000000 7.500000 0.000000
vt 0.000000 0.000000 0.000000
vt 100.000000 0.000000 0.000000
vt 0.000000 7.500000 0.000000
vt 100.000000 7.500000 0.000000
vt -0.000000 0.000000 0.000000
vt 100.000000 0.000000 0.000000
vt -0.000000 7.500000 0.000000
vt 100.000000 7.500000 0.000000
vt -0.000000 0.000000 0.000000
vt 100.000000 0.000000 0.000000
vt -0.000000 7.500000 0.000000
vt 100.000000 7.500000 0.000000
vt 0.000000 0.000000 0.000000
vt 120.000000 0.000000 0.000000
vt 0.000000 7.500000 0.000000
vt 120.000000 7.500000 0.000000
vt 0.000000 0.000000 0.000000
vt 120.000000 0.000000 0.000000
vt 0.000000 7.500000 0.000000
vt 120.000000 7.500000 0.000000
vt 0.000000 0.000000 0.000000
vt 120.000000 0.000000 0.000000
vt 0.000000 7.500000 0.000000
vt 120.000000 7.500000 0.000000
vt 0.000000 0.000000 0.000000
vt 120.000000 0.000000 0.000000
vt 0.000000 7.500000 0.000000
vt 120.000000 7.500000 0.000000
vt 50.000000 -50.000000 0.000000
vt 60.000000 -60.000000 0.000000
vt 50.000000 50.000000 0.000000
vt 60.000000 60.000000 0.000000
vt -60.000000 60.000000 0.000000
vt -50.000000 -50.000000 0.000000
vt -60.000000 -60.000000 0.000000
vt -50.000000 50.000000 0.000000
vt -50.000000 50.000000 0.000000
vt -60.000000 -60.000000 0.000000
vt -50.000000 -50.000000 0.000000
vt 60.000000 -60.000000 0.000000
vt 50.000000 -50.000000 0.000000
vt 50.000000 50.000000 0.000000
vt 60.000000 60.000000 0.000000
vt -60.000000 60.000000 0.000000
vn 0.000000 -0.100000 0.000000
vn 0.000000 -0.100000 0.000000
vn 0.000000 -0.100000 0.000000
vn 0.000000 -0.100000 0.000000
vn 0.100000 0.000000 0.000000
vn 0.100000 0.000000 0.000000
vn 0.100000 0.000000 0.000000
vn 0.100000 0.000000 0.000000
vn 0.000000 0.100000 0.000000
vn 0.000000 0.100000 0.000000
vn 0.000000 0.100000 0.000000
vn 0.000000 0.100000 0.000000
vn -0.100000 0.000000 0.000000
vn -0.100000 0.000000 0.000000
vn -0.100000 0.000000 0.000000
vn -0.100000 0.000000 0.000000
vn 0.000000 -0.100000 0.000000
vn 0.000000 -0.100000 0.000000
vn 0.000000 -0.100000 0.000000
vn 0.000000 -0.100000 0.000000
vn -0.100000 0.000000 0.000000
vn -0.100000 0.000000 0.000000
vn -0.100000 0.000000 0.000000
vn -0.100000 0.000000 0.000000
vn 0.000000 0.100000 0.000000
vn 0.000000 0.100000 0.000000
vn 0.000000 0.100000 0.000000
vn 0.000000 0.100000 0.000000
vn 0.100000 0.000000 0.000000
vn 0.100000 0.000000 0.000000
vn 0.100000 0.000000 0.000000
vn 0.100000 0.000000 0.000000
vn 0.000000 0.000000 0.100000
vn 0.000000 0.000000 0.100000
vn 0.000000 0.000000 0.100000
vn 0.000000 0.000000 0.100000
vn 0.000000 0.000000 0.100000
vn 0.000000 0.000000 0.100000
vn 0.000000 0.000000 0.100000
vn 0.000000 0.000000 0.100000
vn 0.000000 0.000000 -0.100000
vn 0.000000 0.000000 -0.100000
vn 0.000000 0.000000 -0.100000
vn 0.000000 0.000000 -0.100000
vn 0.000000 0.000000 -0.100000
vn 0.000000 0.000000 -0.100000
vn 0.000000 0.000000 -0.100000
vn 0.000000 0.000000 -0.100000
usemtl Steel_-_Satin
f 1/1/1 2/2/2 4/3/3
f 4/3/3 2/2/2 3/4/4
f 5/5/5 1/6/6 6/7/7
f 6/7/7 1/6/6 4/8/8
f 7/9/9 5/10/10 8/11/11
f 8/11/11 5/10/10 6/12/12
f 2/13/13 7/14/14 3/15/15
f 3/15/15 7/14/14 8/16/16
f 9/17/17 10/18/18 12/19/19
f 12/19/19 10/18/18 11/20/20
f 13/21/21 9/22/22 14/23/23
f 14/23/23 9/22/22 12/24/24
f 15/25/25 13/26/26 16/27/27
f 16/27/27 13/26/26 14/28/28
f 10/29/29 15/30/30 11/31/31
f 11/31/31 15/30/30 16/32/32
f 8/33/33 11/34/34 3/35/35
f 3/35/35 11/34/34 16/36/36
f 3/35/35 16/36/36 14/37/37
f 8/33/33 6/38/38 11/34/34
f 11/34/34 6/38/38 12/39/39
f 12/39/39 6/38/38 4/40/40
f 12/39/39 4/40/40 14/37/37
f 14/37/37 4/40/40 3/35/35
f 2/41/41 10/42/42 7/43/43
f 7/43/43 10/42/42 9/44/44
f 7/43/43 9/44/44 5/45/45
f 5/45/45 9/44/44 1/46/46
f 1/46/46 9/44/44 13/47/47
f 1/46/46 13/47/47 15/48/48
f 10/42/42 2/41/41 15/48/48
f 15/48/48 2/41/41 1/46/46
# 16 vertices
# 48 texture params
# 48 normals
# 32 facets

# 1 groups
